<mxfile modified="2022-11-16T00:51:43.973Z" host="app.diagrams.net" agent="5.0 (Windows NT 10.0; Win64; x64) AppleWebKit/537.36 (KHTML, like Gecko) Chrome/107.0.0.0 Safari/537.36" etag="Y30Rt6PUN0OWHfi8xSj0" version="20.5.1" type="github">
  <diagram id="6a731a19-8d31-9384-78a2-239565b7b9f0" name="Page-1">
    <mxGraphModel dx="-31" dy="1423" grid="1" gridSize="10" guides="1" tooltips="1" connect="1" arrows="1" fold="1" page="1" pageScale="1" pageWidth="1100" pageHeight="850" background="#ffffff" math="0" shadow="0">
      <root>
        <mxCell id="0" />
        <mxCell id="1" parent="0" />
        <UserObject label="PostgreSQL" link="https://www.postgresql.org/about/" id="T47zWwT-9xR79p9-MtNg-1">
          <mxCell style="ellipse;whiteSpace=wrap;html=1;align=center;container=1;recursiveResize=0;treeFolding=1;treeMoving=1;fillColor=#DAE8FC;verticalAlign=bottom;" parent="1" vertex="1">
            <mxGeometry x="1580" y="-500" width="148" height="70" as="geometry" />
          </mxCell>
        </UserObject>
        <UserObject label="" link="https://www.postgresql.org/" id="y5E1LS35C2M6shkiyCh6-52">
          <mxCell style="shape=image;verticalLabelPosition=bottom;labelBackgroundColor=#ffffff;verticalAlign=top;aspect=fixed;imageAspect=0;image=https://upload.wikimedia.org/wikipedia/commons/thumb/2/29/Postgresql_elephant.svg/540px-Postgresql_elephant.svg.png;" parent="T47zWwT-9xR79p9-MtNg-1" vertex="1">
            <mxGeometry x="52.44093480603442" y="5" width="45" height="45.92" as="geometry" />
          </mxCell>
        </UserObject>
        <UserObject label="Spatial PostGIS" link="https://postgis.net/" id="T47zWwT-9xR79p9-MtNg-25">
          <mxCell style="whiteSpace=wrap;html=1;shape=partialRectangle;top=0;left=0;bottom=1;right=0;points=[[0,1],[1,1]];strokeColor=#666666;fillColor=#f5f5f5;align=left;verticalAlign=middle;routingCenterY=0.5;snapToPoint=1;container=1;recursiveResize=0;autosize=1;treeFolding=1;treeMoving=1;fontColor=#333333;fontSize=10;spacingLeft=14;" parent="1" vertex="1">
            <mxGeometry x="1452" y="-326" width="91" height="20" as="geometry" />
          </mxCell>
        </UserObject>
        <mxCell id="8VRheUsqfsgYY5pOcE5k-3" value="" style="edgeStyle=orthogonalEdgeStyle;startArrow=none;endArrow=none;segment=10;curved=1;exitX=0.5;exitY=1;exitDx=0;exitDy=0;entryX=0.25;entryY=0;entryDx=0;entryDy=0;" parent="1" source="T47zWwT-9xR79p9-MtNg-1" target="QQFrIH2gePDctSpPwOKv-10" edge="1">
          <mxGeometry relative="1" as="geometry">
            <mxPoint x="2306.5" y="-894" as="targetPoint" />
            <mxPoint x="2381.5" y="-931" as="sourcePoint" />
            <Array as="points">
              <mxPoint x="1653" y="-240" />
              <mxPoint x="1801" y="-240" />
              <mxPoint x="1801" y="-148" />
            </Array>
          </mxGeometry>
        </mxCell>
        <mxCell id="T47zWwT-9xR79p9-MtNg-6" style="edgeStyle=orthogonalEdgeStyle;curved=1;rounded=0;orthogonalLoop=1;jettySize=auto;html=1;entryX=0.25;entryY=0;entryDx=0;entryDy=0;endArrow=none;endFill=0;" parent="1" source="T47zWwT-9xR79p9-MtNg-1" target="T47zWwT-9xR79p9-MtNg-4" edge="1">
          <mxGeometry relative="1" as="geometry" />
        </mxCell>
        <UserObject label="Extensions" link="https://pgxn.org/" id="T47zWwT-9xR79p9-MtNg-2">
          <mxCell style="whiteSpace=wrap;html=1;rounded=1;arcSize=50;align=center;verticalAlign=middle;container=1;recursiveResize=0;strokeWidth=1;autosize=1;spacing=4;treeFolding=1;treeMoving=1;strokeColor=#d79b00;fillColor=#ffe6cc;" parent="1" vertex="1">
            <mxGeometry x="1925.75" y="-225.5" width="100" height="30" as="geometry" />
          </mxCell>
        </UserObject>
        <mxCell id="T47zWwT-9xR79p9-MtNg-3" value="" style="edgeStyle=orthogonalEdgeStyle;startArrow=none;endArrow=none;segment=10;curved=1;entryX=0;entryY=0.5;entryDx=0;entryDy=0;exitX=0.5;exitY=1;exitDx=0;exitDy=0;" parent="1" source="T47zWwT-9xR79p9-MtNg-1" target="T47zWwT-9xR79p9-MtNg-2" edge="1">
          <mxGeometry relative="1" as="geometry">
            <mxPoint x="1580" y="-390" as="targetPoint" />
            <mxPoint x="1670" y="-321" as="sourcePoint" />
          </mxGeometry>
        </mxCell>
        <UserObject label="Foreign Data Wrappers" link="https://pgxn.org/tag/foreign%20data%20wrapper/" id="T47zWwT-9xR79p9-MtNg-4">
          <mxCell style="whiteSpace=wrap;html=1;rounded=1;arcSize=50;align=center;verticalAlign=middle;container=1;recursiveResize=0;strokeWidth=1;autosize=1;spacing=4;treeFolding=1;treeMoving=1;fillColor=#ffe6cc;strokeColor=#d79b00;" parent="1" vertex="1">
            <mxGeometry x="1577.5" y="-221.5" width="170" height="30" as="geometry" />
          </mxCell>
        </UserObject>
        <UserObject label="Oracle" link="https://pgxn.org/dist/oracle_fdw/" id="T47zWwT-9xR79p9-MtNg-7">
          <mxCell style="whiteSpace=wrap;html=1;shape=partialRectangle;top=0;left=0;bottom=1;right=0;points=[[0,1],[1,1]];strokeColor=#666666;fillColor=#f5f5f5;align=left;verticalAlign=middle;routingCenterY=0.5;snapToPoint=1;container=1;recursiveResize=0;autosize=1;treeFolding=1;treeMoving=1;fontColor=#333333;fontSize=10;spacingLeft=14;" parent="1" vertex="1">
            <mxGeometry x="1662" y="-161" width="70" height="20" as="geometry" />
          </mxCell>
        </UserObject>
        <mxCell id="T47zWwT-9xR79p9-MtNg-13" value="" style="edgeStyle=orthogonalEdgeStyle;curved=1;rounded=0;orthogonalLoop=1;jettySize=auto;html=1;endArrow=none;endFill=0;entryX=0.006;entryY=0.493;entryDx=0;entryDy=0;entryPerimeter=0;exitX=0.25;exitY=1;exitDx=0;exitDy=0;" parent="1" source="T47zWwT-9xR79p9-MtNg-4" target="T47zWwT-9xR79p9-MtNg-12" edge="1">
          <mxGeometry relative="1" as="geometry">
            <mxPoint x="1747" y="-198" as="sourcePoint" />
          </mxGeometry>
        </mxCell>
        <UserObject label="SQL Server / Sybase" link="https://pgxn.org/dist/tds_fdw/" id="T47zWwT-9xR79p9-MtNg-9">
          <mxCell style="whiteSpace=wrap;html=1;shape=partialRectangle;top=0;left=0;bottom=1;right=0;points=[[0,1],[1,1]];strokeColor=#666666;fillColor=#f5f5f5;align=left;verticalAlign=middle;routingCenterY=0.5;snapToPoint=1;container=1;recursiveResize=0;autosize=1;treeFolding=1;treeMoving=1;fontColor=#333333;fontSize=10;spacingLeft=14;" parent="1" vertex="1">
            <mxGeometry x="1662.5" y="-130.5" width="111" height="20" as="geometry" />
          </mxCell>
        </UserObject>
        <UserObject label="MySQL" link="https://pgxn.org/dist/mysql_fdw/" id="T47zWwT-9xR79p9-MtNg-12">
          <mxCell style="whiteSpace=wrap;html=1;shape=partialRectangle;top=0;left=0;bottom=1;right=0;points=[[0,1],[1,1]];strokeColor=#666666;fillColor=#f5f5f5;align=left;verticalAlign=middle;routingCenterY=0.5;snapToPoint=1;container=1;recursiveResize=0;autosize=1;treeFolding=1;treeMoving=1;fontColor=#333333;fontSize=10;spacingLeft=14;" parent="1" vertex="1">
            <mxGeometry x="1662" y="-100.5" width="70" height="20" as="geometry" />
          </mxCell>
        </UserObject>
        <mxCell id="T47zWwT-9xR79p9-MtNg-11" value="" style="edgeStyle=entityRelationEdgeStyle;startArrow=none;endArrow=none;segment=10;curved=1;entryX=0;entryY=1;entryDx=0;entryDy=0;exitX=0.25;exitY=1;exitDx=0;exitDy=0;" parent="1" source="T47zWwT-9xR79p9-MtNg-4" target="T47zWwT-9xR79p9-MtNg-9" edge="1">
          <mxGeometry relative="1" as="geometry">
            <mxPoint x="1769" y="-198.5" as="sourcePoint" />
            <mxPoint x="1839" y="-245.5" as="targetPoint" />
          </mxGeometry>
        </mxCell>
        <mxCell id="T47zWwT-9xR79p9-MtNg-15" value="" style="edgeStyle=orthogonalEdgeStyle;curved=1;rounded=0;orthogonalLoop=1;jettySize=auto;html=1;endArrow=none;endFill=0;exitX=0.25;exitY=1;exitDx=0;exitDy=0;entryX=0;entryY=0.4;entryDx=0;entryDy=0;entryPerimeter=0;" parent="1" source="T47zWwT-9xR79p9-MtNg-4" target="T47zWwT-9xR79p9-MtNg-16" edge="1">
          <mxGeometry relative="1" as="geometry">
            <mxPoint x="1727" y="-183" as="sourcePoint" />
          </mxGeometry>
        </mxCell>
        <mxCell id="T47zWwT-9xR79p9-MtNg-18" value="" style="edgeStyle=orthogonalEdgeStyle;curved=1;rounded=0;orthogonalLoop=1;jettySize=auto;html=1;endArrow=none;endFill=0;exitX=0.25;exitY=1;exitDx=0;exitDy=0;entryX=0.001;entryY=0.286;entryDx=0;entryDy=0;entryPerimeter=0;" parent="1" source="T47zWwT-9xR79p9-MtNg-4" target="T47zWwT-9xR79p9-MtNg-17" edge="1">
          <mxGeometry relative="1" as="geometry">
            <mxPoint x="1727" y="-183" as="sourcePoint" />
          </mxGeometry>
        </mxCell>
        <UserObject label="JDBC" link="https://pgxn.org/dist/jdbc_fdw/" id="T47zWwT-9xR79p9-MtNg-16">
          <mxCell style="whiteSpace=wrap;html=1;shape=partialRectangle;top=0;left=0;bottom=1;right=0;points=[[0,1],[1,1]];strokeColor=#666666;fillColor=#f5f5f5;align=left;verticalAlign=middle;routingCenterY=0.5;snapToPoint=1;container=1;recursiveResize=0;autosize=1;treeFolding=1;treeMoving=1;fontColor=#333333;fontSize=10;spacingLeft=14;" parent="1" vertex="1">
            <mxGeometry x="1662" y="-70.5" width="60" height="20" as="geometry" />
          </mxCell>
        </UserObject>
        <UserObject label="Multicorn Python" link="https://pgxn.org/dist/multicorn/" id="T47zWwT-9xR79p9-MtNg-17">
          <mxCell style="whiteSpace=wrap;html=1;shape=partialRectangle;top=0;left=0;bottom=1;right=0;points=[[0,1],[1,1]];strokeColor=#666666;fillColor=#f5f5f5;align=left;verticalAlign=middle;routingCenterY=0.5;snapToPoint=1;container=1;recursiveResize=0;autosize=1;treeFolding=1;treeMoving=1;fontColor=#333333;fontSize=10;spacingLeft=14;" parent="1" vertex="1">
            <mxGeometry x="1662.5" y="-40.5" width="101" height="20" as="geometry" />
          </mxCell>
        </UserObject>
        <UserObject label="Relational" link="https://www.postgresql.org/docs/current/sql.html" id="T47zWwT-9xR79p9-MtNg-21">
          <mxCell style="whiteSpace=wrap;html=1;shape=partialRectangle;top=0;left=0;bottom=1;right=0;points=[[0,1],[1,1]];strokeColor=#666666;fillColor=#f5f5f5;align=left;verticalAlign=middle;routingCenterY=0.5;snapToPoint=1;container=1;recursiveResize=0;autosize=1;treeFolding=1;treeMoving=1;fontColor=#333333;fontSize=10;spacingLeft=14;" parent="1" vertex="1">
            <mxGeometry x="1452" y="-395" width="71" height="20" as="geometry" />
          </mxCell>
        </UserObject>
        <mxCell id="T47zWwT-9xR79p9-MtNg-22" value="" style="edgeStyle=entityRelationEdgeStyle;startArrow=none;endArrow=none;segment=10;curved=1;exitX=0.75;exitY=1;exitDx=0;exitDy=0;" parent="1" source="T47zWwT-9xR79p9-MtNg-20" target="T47zWwT-9xR79p9-MtNg-21" edge="1">
          <mxGeometry relative="1" as="geometry">
            <mxPoint x="1561.5" y="-319.5" as="sourcePoint" />
          </mxGeometry>
        </mxCell>
        <mxCell id="T47zWwT-9xR79p9-MtNg-23" value="" style="edgeStyle=orthogonalEdgeStyle;curved=1;rounded=0;orthogonalLoop=1;jettySize=auto;html=1;endArrow=none;endFill=0;entryX=-0.001;entryY=0.745;entryDx=0;entryDy=0;entryPerimeter=0;exitX=0.75;exitY=1;exitDx=0;exitDy=0;" parent="1" source="T47zWwT-9xR79p9-MtNg-20" target="T47zWwT-9xR79p9-MtNg-25" edge="1">
          <mxGeometry relative="1" as="geometry">
            <mxPoint x="1561.5" y="-319.5" as="sourcePoint" />
          </mxGeometry>
        </mxCell>
        <UserObject label="JSON" link="https://www.postgresql.org/docs/current/functions-json.html" id="T47zWwT-9xR79p9-MtNg-24">
          <mxCell style="whiteSpace=wrap;html=1;shape=partialRectangle;top=0;left=0;bottom=1;right=0;points=[[0,1],[1,1]];strokeColor=#666666;fillColor=#f5f5f5;align=left;verticalAlign=middle;routingCenterY=0.5;snapToPoint=1;container=1;recursiveResize=0;autosize=1;treeFolding=1;treeMoving=1;fontColor=#333333;fontSize=10;spacingLeft=14;" parent="1" vertex="1">
            <mxGeometry x="1451.5" y="-361" width="60" height="20" as="geometry" />
          </mxCell>
        </UserObject>
        <mxCell id="T47zWwT-9xR79p9-MtNg-26" value="" style="edgeStyle=entityRelationEdgeStyle;startArrow=none;endArrow=none;segment=10;curved=1;entryX=0;entryY=1;entryDx=0;entryDy=0;exitX=0.75;exitY=1;exitDx=0;exitDy=0;" parent="1" source="T47zWwT-9xR79p9-MtNg-20" target="T47zWwT-9xR79p9-MtNg-24" edge="1">
          <mxGeometry relative="1" as="geometry">
            <mxPoint x="1583.5" y="-320" as="sourcePoint" />
            <mxPoint x="1653.5" y="-367" as="targetPoint" />
          </mxGeometry>
        </mxCell>
        <mxCell id="T47zWwT-9xR79p9-MtNg-27" value="" style="edgeStyle=orthogonalEdgeStyle;curved=1;rounded=0;orthogonalLoop=1;jettySize=auto;html=1;endArrow=none;endFill=0;exitX=0.75;exitY=1;exitDx=0;exitDy=0;entryX=0;entryY=0.4;entryDx=0;entryDy=0;entryPerimeter=0;" parent="1" source="T47zWwT-9xR79p9-MtNg-20" target="T47zWwT-9xR79p9-MtNg-29" edge="1">
          <mxGeometry relative="1" as="geometry">
            <mxPoint x="1541.5" y="-304.5" as="sourcePoint" />
          </mxGeometry>
        </mxCell>
        <mxCell id="T47zWwT-9xR79p9-MtNg-28" value="" style="edgeStyle=orthogonalEdgeStyle;curved=1;rounded=0;orthogonalLoop=1;jettySize=auto;html=1;endArrow=none;endFill=0;exitX=0.75;exitY=1;exitDx=0;exitDy=0;entryX=0.001;entryY=0.286;entryDx=0;entryDy=0;entryPerimeter=0;" parent="1" source="T47zWwT-9xR79p9-MtNg-20" target="T47zWwT-9xR79p9-MtNg-30" edge="1">
          <mxGeometry relative="1" as="geometry">
            <mxPoint x="1541.5" y="-304.5" as="sourcePoint" />
          </mxGeometry>
        </mxCell>
        <UserObject label="Name Value" link="https://www.postgresql.org/docs/current/hstore.html" id="T47zWwT-9xR79p9-MtNg-29">
          <mxCell style="whiteSpace=wrap;html=1;shape=partialRectangle;top=0;left=0;bottom=1;right=0;points=[[0,1],[1,1]];strokeColor=#666666;fillColor=#f5f5f5;align=left;verticalAlign=middle;routingCenterY=0.5;snapToPoint=1;container=1;recursiveResize=0;autosize=1;treeFolding=1;treeMoving=1;fontColor=#333333;fontSize=10;spacingLeft=14;" parent="1" vertex="1">
            <mxGeometry x="1451.5" y="-292" width="100" height="20" as="geometry" />
          </mxCell>
        </UserObject>
        <UserObject label="Columnar" link="https://www.citusdata.com/blog/2014/04/03/columnar-store-for-analytics/" id="T47zWwT-9xR79p9-MtNg-30">
          <mxCell style="whiteSpace=wrap;html=1;shape=partialRectangle;top=0;left=0;bottom=1;right=0;points=[[0,1],[1,1]];strokeColor=#666666;fillColor=#f5f5f5;align=left;verticalAlign=middle;routingCenterY=0.5;snapToPoint=1;container=1;recursiveResize=0;autosize=1;treeFolding=1;treeMoving=1;fontColor=#333333;fontSize=10;spacingLeft=14;" parent="1" vertex="1">
            <mxGeometry x="1451.5" y="-257" width="80" height="20" as="geometry" />
          </mxCell>
        </UserObject>
        <mxCell id="T47zWwT-9xR79p9-MtNg-31" value="" style="edgeStyle=orthogonalEdgeStyle;curved=1;rounded=0;orthogonalLoop=1;jettySize=auto;html=1;endArrow=none;endFill=0;entryX=0.001;entryY=0.286;entryDx=0;entryDy=0;entryPerimeter=0;exitX=0.5;exitY=1;exitDx=0;exitDy=0;" parent="1" source="T47zWwT-9xR79p9-MtNg-20" target="T47zWwT-9xR79p9-MtNg-32" edge="1">
          <mxGeometry relative="1" as="geometry">
            <mxPoint x="1511.5" y="-319.5" as="sourcePoint" />
          </mxGeometry>
        </mxCell>
        <UserObject label="Timeseries at Rest" link="https://www.timescale.com/" id="T47zWwT-9xR79p9-MtNg-32">
          <mxCell style="whiteSpace=wrap;html=1;shape=partialRectangle;top=0;left=0;bottom=1;right=0;points=[[0,1],[1,1]];strokeColor=#666666;fillColor=#f5f5f5;align=left;verticalAlign=middle;routingCenterY=0.5;snapToPoint=1;container=1;recursiveResize=0;autosize=1;treeFolding=1;treeMoving=1;fontColor=#333333;fontSize=10;spacingLeft=14;" parent="1" vertex="1">
            <mxGeometry x="1452" y="-222" width="121" height="20" as="geometry" />
          </mxCell>
        </UserObject>
        <mxCell id="T47zWwT-9xR79p9-MtNg-33" value="" style="edgeStyle=orthogonalEdgeStyle;curved=1;rounded=0;orthogonalLoop=1;jettySize=auto;html=1;endArrow=none;endFill=0;entryX=0.001;entryY=0.286;entryDx=0;entryDy=0;entryPerimeter=0;exitX=0.25;exitY=1;exitDx=0;exitDy=0;" parent="1" source="T47zWwT-9xR79p9-MtNg-20" target="T47zWwT-9xR79p9-MtNg-34" edge="1">
          <mxGeometry relative="1" as="geometry">
            <mxPoint x="1451.5" y="-242.5" as="sourcePoint" />
          </mxGeometry>
        </mxCell>
        <UserObject label="Timeseries Streaming" link="https://www.pipelinedb.com/" id="T47zWwT-9xR79p9-MtNg-34">
          <mxCell style="whiteSpace=wrap;html=1;shape=partialRectangle;top=0;left=0;bottom=1;right=0;points=[[0,1],[1,1]];strokeColor=#666666;fillColor=#f5f5f5;align=left;verticalAlign=middle;routingCenterY=0.5;snapToPoint=1;container=1;recursiveResize=0;autosize=1;treeFolding=1;treeMoving=1;fontColor=#333333;fontSize=10;spacingLeft=14;" parent="1" vertex="1">
            <mxGeometry x="1451.5" y="-152.5" width="121" height="20" as="geometry" />
          </mxCell>
        </UserObject>
        <mxCell id="T47zWwT-9xR79p9-MtNg-35" value="" style="edgeStyle=orthogonalEdgeStyle;curved=1;rounded=0;orthogonalLoop=1;jettySize=auto;html=1;endArrow=none;endFill=0;entryX=0.001;entryY=0.286;entryDx=0;entryDy=0;entryPerimeter=0;exitX=0.5;exitY=1;exitDx=0;exitDy=0;" parent="1" source="T47zWwT-9xR79p9-MtNg-20" target="T47zWwT-9xR79p9-MtNg-36" edge="1">
          <mxGeometry relative="1" as="geometry">
            <mxPoint x="1331.5" y="-249.5" as="sourcePoint" />
          </mxGeometry>
        </mxCell>
        <UserObject label="GraphDB" link="https://bitnine.net/" id="T47zWwT-9xR79p9-MtNg-36">
          <mxCell style="whiteSpace=wrap;html=1;shape=partialRectangle;top=0;left=0;bottom=1;right=0;points=[[0,1],[1,1]];strokeColor=#666666;fillColor=#f5f5f5;align=left;verticalAlign=middle;routingCenterY=0.5;snapToPoint=1;container=1;recursiveResize=0;autosize=1;treeFolding=1;treeMoving=1;fontColor=#333333;fontSize=10;spacingLeft=14;" parent="1" vertex="1">
            <mxGeometry x="1451.5" y="-188" width="80" height="20" as="geometry" />
          </mxCell>
        </UserObject>
        <UserObject label="Languages" id="QQFrIH2gePDctSpPwOKv-1">
          <mxCell style="whiteSpace=wrap;html=1;rounded=1;arcSize=50;align=center;verticalAlign=middle;container=1;recursiveResize=0;strokeWidth=1;autosize=1;spacing=4;treeFolding=1;treeMoving=1;fillColor=#ffe6cc;strokeColor=#d79b00;" parent="1" vertex="1">
            <mxGeometry x="1209" y="-460.5" width="100" height="30" as="geometry" />
          </mxCell>
        </UserObject>
        <UserObject label="Rest API / Graph QL" id="QQFrIH2gePDctSpPwOKv-3">
          <mxCell style="whiteSpace=wrap;html=1;rounded=1;arcSize=50;align=center;verticalAlign=middle;container=1;recursiveResize=0;strokeWidth=1;autosize=1;spacing=4;treeFolding=1;treeMoving=1;fillColor=#ffe6cc;strokeColor=#d79b00;" parent="1" vertex="1">
            <mxGeometry x="1879.5" y="-782" width="150" height="30" as="geometry" />
          </mxCell>
        </UserObject>
        <UserObject label="Cloud Providers" id="QQFrIH2gePDctSpPwOKv-9">
          <mxCell style="whiteSpace=wrap;html=1;rounded=1;arcSize=50;align=center;verticalAlign=middle;container=1;recursiveResize=0;strokeWidth=1;autosize=1;spacing=4;treeFolding=1;treeMoving=1;fillColor=#ffe6cc;strokeColor=#d79b00;" parent="1" vertex="1">
            <mxGeometry x="1747.5" y="-321" width="130" height="30" as="geometry" />
          </mxCell>
        </UserObject>
        <UserObject label="Hardware" id="QQFrIH2gePDctSpPwOKv-10">
          <mxCell style="whiteSpace=wrap;html=1;rounded=1;arcSize=50;align=center;verticalAlign=middle;container=1;recursiveResize=0;strokeWidth=1;autosize=1;spacing=4;treeFolding=1;treeMoving=1;fillColor=#ffe6cc;strokeColor=#d79b00;" parent="1" vertex="1">
            <mxGeometry x="1790" y="-130.5" width="90" height="30" as="geometry" />
          </mxCell>
        </UserObject>
        <UserObject label="AWS Aurora" link="https://aws.amazon.com/rds/aurora/postgresql-features/" id="2LREq_vUWXgBy6xoVpGK-4">
          <mxCell style="whiteSpace=wrap;html=1;shape=partialRectangle;top=0;left=0;bottom=1;right=0;points=[[0,1],[1,1]];strokeColor=#666666;fillColor=#f5f5f5;align=left;verticalAlign=middle;routingCenterY=0.5;snapToPoint=1;container=1;recursiveResize=0;autosize=1;treeFolding=1;treeMoving=1;fontColor=#333333;fontSize=10;spacingLeft=14;" parent="1" vertex="1">
            <mxGeometry x="1989.5" y="-469" width="100" height="20" as="geometry" />
          </mxCell>
        </UserObject>
        <mxCell id="2LREq_vUWXgBy6xoVpGK-5" value="" style="edgeStyle=entityRelationEdgeStyle;startArrow=none;endArrow=none;segment=10;curved=1;exitX=0.775;exitY=-0.051;exitDx=0;exitDy=0;exitPerimeter=0;entryX=0.439;entryY=1.157;entryDx=0;entryDy=0;entryPerimeter=0;" parent="1" source="QQFrIH2gePDctSpPwOKv-9" target="2LREq_vUWXgBy6xoVpGK-6" edge="1">
          <mxGeometry relative="1" as="geometry">
            <mxPoint x="1747.5" y="-354" as="sourcePoint" />
          </mxGeometry>
        </mxCell>
        <UserObject label="AWS RDS" link="https://aws.amazon.com/rds/postgresql/" id="2LREq_vUWXgBy6xoVpGK-6">
          <mxCell style="whiteSpace=wrap;html=1;shape=partialRectangle;top=0;left=0;bottom=1;right=0;points=[[0,1],[1,1]];strokeColor=#666666;fillColor=#f5f5f5;align=left;verticalAlign=middle;routingCenterY=0.5;snapToPoint=1;container=1;recursiveResize=0;autosize=1;treeFolding=1;treeMoving=1;fontColor=#333333;fontSize=10;spacingLeft=14;" parent="1" vertex="1">
            <mxGeometry x="1820.5" y="-375" width="90" height="20" as="geometry" />
          </mxCell>
        </UserObject>
        <UserObject label="Azure" link="https://azure.microsoft.com/en-us/services/postgresql/" id="2LREq_vUWXgBy6xoVpGK-7">
          <mxCell style="whiteSpace=wrap;html=1;shape=partialRectangle;top=0;left=0;bottom=1;right=0;points=[[0,1],[1,1]];strokeColor=#666666;fillColor=#f5f5f5;align=left;verticalAlign=middle;routingCenterY=0.5;snapToPoint=1;container=1;recursiveResize=0;autosize=1;treeFolding=1;treeMoving=1;fontColor=#333333;fontSize=10;spacingLeft=14;" parent="1" vertex="1">
            <mxGeometry x="1764" y="-358" width="53" height="20" as="geometry" />
          </mxCell>
        </UserObject>
        <UserObject label="Azure Cosmos DB for PostgreSQL" link="https://learn.microsoft.com/en-us/azure/cosmos-db/postgresql/introduction" id="2LREq_vUWXgBy6xoVpGK-8">
          <mxCell style="whiteSpace=wrap;html=1;shape=partialRectangle;top=0;left=0;bottom=1;right=0;points=[[0,1],[1,1]];strokeColor=#666666;fillColor=#f5f5f5;align=left;verticalAlign=middle;routingCenterY=0.5;snapToPoint=1;container=1;recursiveResize=0;autosize=1;treeFolding=1;treeMoving=1;fontColor=#333333;fontSize=10;spacingLeft=14;" parent="1" vertex="1">
            <mxGeometry x="1989.5" y="-427.5" width="175" height="20" as="geometry" />
          </mxCell>
        </UserObject>
        <UserObject label="Google Cloud SQL" link="https://cloud.google.com/sql/docs/postgres/" id="2LREq_vUWXgBy6xoVpGK-9">
          <mxCell style="whiteSpace=wrap;html=1;shape=partialRectangle;top=0;left=0;bottom=1;right=0;points=[[0,1],[1,1]];strokeColor=#666666;fillColor=#f5f5f5;align=left;verticalAlign=middle;routingCenterY=0.5;snapToPoint=1;container=1;recursiveResize=0;autosize=1;treeFolding=1;treeMoving=1;fontColor=#333333;fontSize=10;spacingLeft=14;" parent="1" vertex="1">
            <mxGeometry x="1910.5" y="-321" width="130" height="20" as="geometry" />
          </mxCell>
        </UserObject>
        <mxCell id="2LREq_vUWXgBy6xoVpGK-11" value="" style="edgeStyle=entityRelationEdgeStyle;startArrow=none;endArrow=none;segment=10;curved=1;entryX=0.676;entryY=1.145;entryDx=0;entryDy=0;entryPerimeter=0;" parent="1" target="2LREq_vUWXgBy6xoVpGK-7" edge="1">
          <mxGeometry relative="1" as="geometry">
            <mxPoint x="1780.5" y="-323" as="sourcePoint" />
            <mxPoint x="1917.5" y="-317.5" as="targetPoint" />
          </mxGeometry>
        </mxCell>
        <mxCell id="2LREq_vUWXgBy6xoVpGK-12" value="" style="edgeStyle=entityRelationEdgeStyle;startArrow=none;endArrow=none;segment=10;curved=1;exitX=1;exitY=0.5;exitDx=0;exitDy=0;" parent="1" source="QQFrIH2gePDctSpPwOKv-9" target="2LREq_vUWXgBy6xoVpGK-9" edge="1">
          <mxGeometry relative="1" as="geometry">
            <mxPoint x="1872.5" y="-253.5" as="sourcePoint" />
            <mxPoint x="1907.5" y="-280.5" as="targetPoint" />
          </mxGeometry>
        </mxCell>
        <mxCell id="2LREq_vUWXgBy6xoVpGK-13" value="" style="edgeStyle=entityRelationEdgeStyle;startArrow=none;endArrow=none;segment=10;curved=1;exitX=1;exitY=0.5;exitDx=0;exitDy=0;entryX=0.014;entryY=0.537;entryDx=0;entryDy=0;entryPerimeter=0;" parent="1" source="QQFrIH2gePDctSpPwOKv-9" target="2LREq_vUWXgBy6xoVpGK-10" edge="1">
          <mxGeometry relative="1" as="geometry">
            <mxPoint x="1872.5" y="-216.5" as="sourcePoint" />
            <mxPoint x="1887.5" y="-250.5" as="targetPoint" />
          </mxGeometry>
        </mxCell>
        <UserObject label="Scalability" link="https://www.postgresql.org/docs/current/different-replication-solutions.html#HIGH-AVAILABILITY-MATRIX" id="2LREq_vUWXgBy6xoVpGK-14">
          <mxCell style="whiteSpace=wrap;html=1;rounded=1;arcSize=50;align=center;verticalAlign=middle;container=1;recursiveResize=0;strokeWidth=1;autosize=1;spacing=4;treeFolding=1;treeMoving=1;fillColor=#ffe6cc;strokeColor=#d79b00;" parent="1" vertex="1">
            <mxGeometry x="1802.5" y="-431" width="90" height="30" as="geometry" />
          </mxCell>
        </UserObject>
        <mxCell id="2LREq_vUWXgBy6xoVpGK-15" value="" style="edgeStyle=entityRelationEdgeStyle;startArrow=none;endArrow=none;segment=10;curved=1;entryX=0.012;entryY=0.36;entryDx=0;entryDy=0;entryPerimeter=0;" parent="1" source="2LREq_vUWXgBy6xoVpGK-14" target="2LREq_vUWXgBy6xoVpGK-4" edge="1">
          <mxGeometry relative="1" as="geometry">
            <mxPoint x="1832.5" y="-473.5" as="sourcePoint" />
            <mxPoint x="2002.5" y="-455.5" as="targetPoint" />
          </mxGeometry>
        </mxCell>
        <UserObject label="Greenplum" link="https://greenplum.org/" id="2LREq_vUWXgBy6xoVpGK-18">
          <mxCell style="whiteSpace=wrap;html=1;shape=partialRectangle;top=0;left=0;bottom=1;right=0;points=[[0,1],[1,1]];strokeColor=#666666;fillColor=#f5f5f5;align=left;verticalAlign=middle;routingCenterY=0.5;snapToPoint=1;container=1;recursiveResize=0;autosize=1;treeFolding=1;treeMoving=1;fontColor=#333333;fontSize=10;spacingLeft=14;" parent="1" vertex="1">
            <mxGeometry x="1989.5" y="-385" width="90" height="20" as="geometry" />
          </mxCell>
        </UserObject>
        <UserObject label="Streaming Replication" link="https://wiki.postgresql.org/wiki/Streaming_Replication" id="2LREq_vUWXgBy6xoVpGK-19">
          <mxCell style="whiteSpace=wrap;html=1;shape=partialRectangle;top=0;left=0;bottom=1;right=0;points=[[0,1],[1,1]];strokeColor=#666666;fillColor=#f5f5f5;align=left;verticalAlign=middle;routingCenterY=0.5;snapToPoint=1;container=1;recursiveResize=0;autosize=1;treeFolding=1;treeMoving=1;fontColor=#333333;flipV=1;flipH=0;fontSize=10;spacingLeft=14;" parent="1" vertex="1">
            <mxGeometry x="1773.5" y="-645.5" width="150" height="20" as="geometry" />
          </mxCell>
        </UserObject>
        <mxCell id="2LREq_vUWXgBy6xoVpGK-20" value="" style="edgeStyle=entityRelationEdgeStyle;startArrow=none;endArrow=none;segment=10;curved=1;exitX=1;exitY=0.5;exitDx=0;exitDy=0;entryX=0.016;entryY=0.475;entryDx=0;entryDy=0;entryPerimeter=0;" parent="1" source="2LREq_vUWXgBy6xoVpGK-14" target="2LREq_vUWXgBy6xoVpGK-8" edge="1">
          <mxGeometry relative="1" as="geometry">
            <mxPoint x="1967.5" y="-410" as="sourcePoint" />
            <mxPoint x="2002.5" y="-409.5" as="targetPoint" />
          </mxGeometry>
        </mxCell>
        <mxCell id="2LREq_vUWXgBy6xoVpGK-21" value="" style="edgeStyle=entityRelationEdgeStyle;startArrow=none;endArrow=none;segment=10;curved=1;exitX=1;exitY=0.5;exitDx=0;exitDy=0;entryX=-0.024;entryY=0.332;entryDx=0;entryDy=0;entryPerimeter=0;" parent="1" source="2LREq_vUWXgBy6xoVpGK-14" target="2LREq_vUWXgBy6xoVpGK-18" edge="1">
          <mxGeometry relative="1" as="geometry">
            <mxPoint x="1957.5" y="-373" as="sourcePoint" />
            <mxPoint x="1990" y="-400" as="targetPoint" />
          </mxGeometry>
        </mxCell>
        <mxCell id="2LREq_vUWXgBy6xoVpGK-22" value="" style="edgeStyle=entityRelationEdgeStyle;startArrow=none;endArrow=none;segment=10;curved=1;entryX=-0.006;entryY=0.311;entryDx=0;entryDy=0;entryPerimeter=0;exitX=0.25;exitY=0;exitDx=0;exitDy=0;" parent="1" source="2LREq_vUWXgBy6xoVpGK-26" target="2LREq_vUWXgBy6xoVpGK-19" edge="1">
          <mxGeometry relative="1" as="geometry">
            <mxPoint x="2114.5" y="-555" as="sourcePoint" />
            <mxPoint x="1740" y="-626" as="targetPoint" />
          </mxGeometry>
        </mxCell>
        <UserObject label="Logical Replication" link="https://severalnines.com/database-blog/overview-logical-replication-postgresql" id="2LREq_vUWXgBy6xoVpGK-23">
          <mxCell style="whiteSpace=wrap;html=1;shape=partialRectangle;top=0;left=0;bottom=1;right=0;points=[[0,1],[1,1]];strokeColor=#666666;fillColor=#f5f5f5;align=left;verticalAlign=middle;routingCenterY=0.5;snapToPoint=1;container=1;recursiveResize=0;autosize=1;treeFolding=1;treeMoving=1;fontColor=#333333;flipV=1;flipH=0;fontSize=10;spacingLeft=14;" parent="1" vertex="1">
            <mxGeometry x="1879.5" y="-616.5" width="130" height="20" as="geometry" />
          </mxCell>
        </UserObject>
        <UserObject label="pgpool" link="https://www.pgpool.net/mediawiki/index.php/Main_Page" id="2LREq_vUWXgBy6xoVpGK-24">
          <mxCell style="whiteSpace=wrap;html=1;shape=partialRectangle;top=0;left=0;bottom=1;right=0;points=[[0,1],[1,1]];strokeColor=#666666;fillColor=#f5f5f5;align=left;verticalAlign=middle;routingCenterY=0.5;snapToPoint=1;container=1;recursiveResize=0;autosize=1;treeFolding=1;treeMoving=1;fontColor=#333333;fontSize=10;spacingLeft=14;flipH=1;flipV=0;" parent="1" vertex="1">
            <mxGeometry x="1309.0000000000005" y="-519.5" width="70" height="20" as="geometry" />
          </mxCell>
        </UserObject>
        <UserObject label="pgBouncer" link="https://pgbouncer.github.io/" id="2LREq_vUWXgBy6xoVpGK-25">
          <mxCell style="whiteSpace=wrap;html=1;shape=partialRectangle;top=0;left=0;bottom=1;right=0;points=[[0,1],[1,1]];strokeColor=#666666;fillColor=#f5f5f5;align=left;verticalAlign=middle;routingCenterY=0.5;snapToPoint=1;container=1;recursiveResize=0;autosize=1;treeFolding=1;treeMoving=1;fontColor=#333333;fontSize=10;spacingLeft=14;flipH=1;flipV=0;" parent="1" vertex="1">
            <mxGeometry x="1309" y="-549.5" width="90" height="20" as="geometry" />
          </mxCell>
        </UserObject>
        <UserObject label="Replication" link="https://www.postgresql.org/docs/current/different-replication-solutions.html#HIGH-AVAILABILITY-MATRIX" id="2LREq_vUWXgBy6xoVpGK-26">
          <mxCell style="whiteSpace=wrap;html=1;rounded=1;arcSize=50;align=center;verticalAlign=middle;container=1;recursiveResize=0;strokeWidth=1;autosize=1;spacing=4;treeFolding=1;treeMoving=1;fillColor=#ffe6cc;strokeColor=#d79b00;" parent="1" vertex="1">
            <mxGeometry x="1735" y="-591.5" width="100" height="30" as="geometry" />
          </mxCell>
        </UserObject>
        <mxCell id="2LREq_vUWXgBy6xoVpGK-27" value="" style="edgeStyle=entityRelationEdgeStyle;startArrow=none;endArrow=none;segment=10;curved=1;exitX=1;exitY=0.5;exitDx=0;exitDy=0;entryX=-0.003;entryY=0.593;entryDx=0;entryDy=0;entryPerimeter=0;" parent="1" source="2LREq_vUWXgBy6xoVpGK-26" target="2LREq_vUWXgBy6xoVpGK-23" edge="1">
          <mxGeometry relative="1" as="geometry">
            <mxPoint x="2114.5" y="-555" as="sourcePoint" />
            <mxPoint x="2324.5" y="-605" as="targetPoint" />
          </mxGeometry>
        </mxCell>
        <UserObject label="Load Balancers" link="https://www.percona.com/blog/2018/10/02/scaling-postgresql-using-connection-poolers-and-load-balancers-for-an-enterprise-grade-environment/" id="2LREq_vUWXgBy6xoVpGK-28">
          <mxCell style="whiteSpace=wrap;html=1;rounded=1;arcSize=50;align=center;verticalAlign=middle;container=1;recursiveResize=0;strokeWidth=1;autosize=1;spacing=4;treeFolding=1;treeMoving=1;fillColor=#ffe6cc;strokeColor=#d79b00;" parent="1" vertex="1">
            <mxGeometry x="1437.5" y="-552" width="120" height="30" as="geometry" />
          </mxCell>
        </UserObject>
        <UserObject label="HAProxy" link="http://www.haproxy.org/" id="2LREq_vUWXgBy6xoVpGK-29">
          <mxCell style="whiteSpace=wrap;html=1;shape=partialRectangle;top=0;left=0;bottom=1;right=0;points=[[0,1],[1,1]];strokeColor=#666666;fillColor=#f5f5f5;align=left;verticalAlign=middle;routingCenterY=0.5;snapToPoint=1;container=1;recursiveResize=0;autosize=1;treeFolding=1;treeMoving=1;fontColor=#333333;fontSize=10;spacingLeft=14;flipH=1;flipV=0;" parent="1" vertex="1">
            <mxGeometry x="1309.0000000000005" y="-575" width="80" height="20" as="geometry" />
          </mxCell>
        </UserObject>
        <UserObject label="Postgres-BDR" link="https://www.2ndquadrant.com/en/resources/postgres-bdr-2ndquadrant/" id="2LREq_vUWXgBy6xoVpGK-30">
          <mxCell style="whiteSpace=wrap;html=1;shape=partialRectangle;top=0;left=0;bottom=1;right=0;points=[[0,1],[1,1]];strokeColor=#666666;fillColor=#f5f5f5;align=left;verticalAlign=middle;routingCenterY=0.5;snapToPoint=1;container=1;recursiveResize=0;autosize=1;treeFolding=1;treeMoving=1;fontColor=#333333;flipV=1;flipH=0;spacingLeft=14;fontSize=10;" parent="1" vertex="1">
            <mxGeometry x="1959" y="-586.5" width="110" height="20" as="geometry" />
          </mxCell>
        </UserObject>
        <UserObject label="EDB Postgres &lt;br style=&quot;font-size: 10px;&quot;&gt;Replication Server" link="https://www.enterprisedb.com/enterprise-postgres/edb-postgres-replication-server" id="2LREq_vUWXgBy6xoVpGK-31">
          <mxCell style="whiteSpace=wrap;html=1;shape=partialRectangle;top=0;left=0;bottom=1;right=0;points=[[0,1],[1,1]];strokeColor=#666666;fillColor=#f5f5f5;align=left;verticalAlign=middle;routingCenterY=0.5;snapToPoint=1;container=1;recursiveResize=0;autosize=1;treeFolding=1;treeMoving=1;fontColor=#333333;flipV=0;spacingLeft=14;fontSize=10;flipH=0;" parent="1" vertex="1">
            <mxGeometry x="1989.5" y="-552" width="130" height="30" as="geometry" />
          </mxCell>
        </UserObject>
        <UserObject label="AWS Data Migration Service" link="https://aws.amazon.com/dms/" id="2LREq_vUWXgBy6xoVpGK-32">
          <mxCell style="whiteSpace=wrap;html=1;shape=partialRectangle;top=0;left=0;bottom=1;right=0;points=[[0,1],[1,1]];strokeColor=#666666;fillColor=#f5f5f5;align=left;verticalAlign=middle;routingCenterY=0.5;snapToPoint=1;container=1;recursiveResize=0;autosize=1;treeFolding=1;treeMoving=1;fontColor=#333333;flipV=0;fontSize=10;spacingLeft=14;flipH=0;" parent="1" vertex="1">
            <mxGeometry x="1990" y="-505" width="161" height="20" as="geometry" />
          </mxCell>
        </UserObject>
        <mxCell id="2LREq_vUWXgBy6xoVpGK-33" value="" style="edgeStyle=entityRelationEdgeStyle;startArrow=none;endArrow=none;segment=10;curved=1;exitX=1;exitY=0.5;exitDx=0;exitDy=0;" parent="1" source="2LREq_vUWXgBy6xoVpGK-26" target="2LREq_vUWXgBy6xoVpGK-30" edge="1">
          <mxGeometry relative="1" as="geometry">
            <mxPoint x="2114.5" y="-555" as="sourcePoint" />
            <mxPoint x="2324.5" y="-545" as="targetPoint" />
          </mxGeometry>
        </mxCell>
        <mxCell id="2LREq_vUWXgBy6xoVpGK-34" value="" style="edgeStyle=entityRelationEdgeStyle;startArrow=none;endArrow=none;segment=10;curved=1;exitX=1;exitY=0.5;exitDx=0;exitDy=0;" parent="1" source="2LREq_vUWXgBy6xoVpGK-26" target="2LREq_vUWXgBy6xoVpGK-31" edge="1">
          <mxGeometry relative="1" as="geometry">
            <mxPoint x="2114.5" y="-555" as="sourcePoint" />
            <mxPoint x="2224.5" y="-443.5" as="targetPoint" />
          </mxGeometry>
        </mxCell>
        <mxCell id="2LREq_vUWXgBy6xoVpGK-35" value="" style="edgeStyle=entityRelationEdgeStyle;startArrow=none;endArrow=none;segment=10;curved=1;entryX=0;entryY=1;entryDx=0;entryDy=0;" parent="1" source="2LREq_vUWXgBy6xoVpGK-26" target="2LREq_vUWXgBy6xoVpGK-32" edge="1">
          <mxGeometry relative="1" as="geometry">
            <mxPoint x="2114.5" y="-555.5" as="sourcePoint" />
            <mxPoint x="2234.5" y="-338" as="targetPoint" />
          </mxGeometry>
        </mxCell>
        <mxCell id="2LREq_vUWXgBy6xoVpGK-36" value="" style="edgeStyle=orthogonalEdgeStyle;startArrow=none;endArrow=none;segment=10;curved=1;exitX=0.25;exitY=0;exitDx=0;exitDy=0;entryX=0.004;entryY=0.443;entryDx=0;entryDy=0;entryPerimeter=0;" parent="1" source="2LREq_vUWXgBy6xoVpGK-28" target="2LREq_vUWXgBy6xoVpGK-29" edge="1">
          <mxGeometry relative="1" as="geometry">
            <mxPoint x="1194" y="-559" as="sourcePoint" />
            <mxPoint x="1313" y="-580" as="targetPoint" />
          </mxGeometry>
        </mxCell>
        <mxCell id="2LREq_vUWXgBy6xoVpGK-37" value="" style="edgeStyle=orthogonalEdgeStyle;startArrow=none;endArrow=none;segment=10;curved=1;entryX=0.03;entryY=0.53;entryDx=0;entryDy=0;entryPerimeter=0;" parent="1" source="2LREq_vUWXgBy6xoVpGK-28" target="2LREq_vUWXgBy6xoVpGK-25" edge="1">
          <mxGeometry relative="1" as="geometry">
            <mxPoint x="1194" y="-515.5" as="sourcePoint" />
            <mxPoint x="1314" y="-570.5" as="targetPoint" />
          </mxGeometry>
        </mxCell>
        <mxCell id="2LREq_vUWXgBy6xoVpGK-38" value="" style="edgeStyle=orthogonalEdgeStyle;startArrow=none;endArrow=none;segment=10;curved=1;exitX=0.25;exitY=1;exitDx=0;exitDy=0;entryX=-0.001;entryY=0.487;entryDx=0;entryDy=0;entryPerimeter=0;" parent="1" source="2LREq_vUWXgBy6xoVpGK-28" target="2LREq_vUWXgBy6xoVpGK-24" edge="1">
          <mxGeometry relative="1" as="geometry">
            <mxPoint x="1194" y="-306" as="sourcePoint" />
            <mxPoint x="1314" y="-355.5" as="targetPoint" />
          </mxGeometry>
        </mxCell>
        <UserObject label="pgTAP" link="https://pgtap.org/" id="2LREq_vUWXgBy6xoVpGK-39">
          <mxCell style="whiteSpace=wrap;html=1;shape=partialRectangle;top=0;left=0;bottom=1;right=0;points=[[0,1],[1,1]];strokeColor=#666666;fillColor=#f5f5f5;align=left;verticalAlign=middle;routingCenterY=0.5;snapToPoint=1;container=1;recursiveResize=0;autosize=1;treeFolding=1;treeMoving=1;fontColor=#333333;flipV=0;fontSize=10;spacingLeft=14;" parent="1" vertex="1">
            <mxGeometry x="2020.75" y="-138.5" width="70" height="16" as="geometry" />
          </mxCell>
        </UserObject>
        <UserObject label="pg_stat_statements" id="2LREq_vUWXgBy6xoVpGK-41">
          <mxCell style="whiteSpace=wrap;html=1;shape=partialRectangle;top=0;left=0;bottom=1;right=0;points=[[0,1],[1,1]];strokeColor=#666666;fillColor=#f5f5f5;align=left;verticalAlign=middle;routingCenterY=0.5;snapToPoint=1;container=1;recursiveResize=0;autosize=1;treeFolding=1;treeMoving=1;fontColor=#333333;flipV=0;fontSize=10;spacingLeft=14;" parent="1" vertex="1">
            <mxGeometry x="2020.25" y="-171.5" width="116" height="20" as="geometry" />
          </mxCell>
        </UserObject>
        <UserObject label="Percona List" link="https://www.percona.com/blog/2018/10/05/postgresql-extensions-for-an-enterprise-grade-system/" id="2LREq_vUWXgBy6xoVpGK-42">
          <mxCell style="whiteSpace=wrap;html=1;shape=partialRectangle;top=0;left=0;bottom=1;right=0;points=[[0,1],[1,1]];strokeColor=#666666;fillColor=#f5f5f5;align=left;verticalAlign=middle;routingCenterY=0.5;snapToPoint=1;container=1;recursiveResize=0;autosize=1;treeFolding=1;treeMoving=1;fontColor=#333333;fontSize=10;spacingLeft=14;" parent="1" vertex="1">
            <mxGeometry x="2019.75" y="-25.5" width="100" height="20" as="geometry" />
          </mxCell>
        </UserObject>
        <UserObject label="Full Text Search" link="https://www.postgresql.org/docs/current/textsearch.html" id="2LREq_vUWXgBy6xoVpGK-43">
          <mxCell style="whiteSpace=wrap;html=1;shape=partialRectangle;top=0;left=0;bottom=1;right=0;points=[[0,1],[1,1]];strokeColor=#666666;fillColor=#f5f5f5;align=left;verticalAlign=middle;routingCenterY=0.5;snapToPoint=1;container=1;recursiveResize=0;autosize=1;treeFolding=1;treeMoving=1;fontColor=#333333;fontSize=10;spacingLeft=14;" parent="1" vertex="1">
            <mxGeometry x="1451.5" y="-113" width="120" height="20" as="geometry" />
          </mxCell>
        </UserObject>
        <mxCell id="2LREq_vUWXgBy6xoVpGK-44" value="" style="edgeStyle=orthogonalEdgeStyle;rounded=0;orthogonalLoop=1;jettySize=auto;html=1;endArrow=none;endFill=0;exitX=0.25;exitY=1;exitDx=0;exitDy=0;entryX=-0.003;entryY=0.361;entryDx=0;entryDy=0;entryPerimeter=0;curved=1;" parent="1" source="T47zWwT-9xR79p9-MtNg-20" target="2LREq_vUWXgBy6xoVpGK-43" edge="1">
          <mxGeometry relative="1" as="geometry">
            <mxPoint x="1629" y="-64" as="sourcePoint" />
            <mxPoint x="1524.5" y="-57.5" as="targetPoint" />
          </mxGeometry>
        </mxCell>
        <UserObject label="Google Cloud &lt;br&gt;Supported" link="https://cloud.google.com/sql/docs/postgres/extensions" id="2LREq_vUWXgBy6xoVpGK-45">
          <mxCell style="whiteSpace=wrap;html=1;shape=partialRectangle;top=0;left=0;bottom=1;right=0;points=[[0,1],[1,1]];strokeColor=#666666;fillColor=#f5f5f5;align=left;verticalAlign=middle;routingCenterY=0.5;snapToPoint=1;container=1;recursiveResize=0;autosize=1;treeFolding=1;treeMoving=1;fontColor=#333333;spacingLeft=14;fontSize=10;" parent="1" vertex="1">
            <mxGeometry x="2020.25" y="-89.5" width="110" height="30" as="geometry" />
          </mxCell>
        </UserObject>
        <UserObject label="AWS RDS Supported" link="https://docs.aws.amazon.com/en_pv/AmazonRDS/latest/UserGuide/CHAP_PostgreSQL.html#PostgreSQL.Concepts.General.FeaturesExtensions" id="2LREq_vUWXgBy6xoVpGK-46">
          <mxCell style="whiteSpace=wrap;html=1;shape=partialRectangle;top=0;left=0;bottom=1;right=0;points=[[0,1],[1,1]];strokeColor=#666666;fillColor=#f5f5f5;align=left;verticalAlign=middle;routingCenterY=0.5;snapToPoint=1;container=1;recursiveResize=0;autosize=1;treeFolding=1;treeMoving=1;fontColor=#333333;flipV=0;fontSize=10;spacingLeft=14;" parent="1" vertex="1">
            <mxGeometry x="2020.25" y="-113.5" width="125" height="20" as="geometry" />
          </mxCell>
        </UserObject>
        <UserObject label="Azure Supported" link="https://docs.microsoft.com/en-us/azure/postgresql/concepts-extensions" id="2LREq_vUWXgBy6xoVpGK-47">
          <mxCell style="whiteSpace=wrap;html=1;shape=partialRectangle;top=0;left=0;bottom=1;right=0;points=[[0,1],[1,1]];strokeColor=#666666;fillColor=#f5f5f5;align=left;verticalAlign=middle;routingCenterY=0.5;snapToPoint=1;container=1;recursiveResize=0;autosize=1;treeFolding=1;treeMoving=1;fontColor=#333333;fontSize=10;spacingLeft=14;" parent="1" vertex="1">
            <mxGeometry x="2020.25" y="-54.5" width="120" height="20" as="geometry" />
          </mxCell>
        </UserObject>
        <mxCell id="2LREq_vUWXgBy6xoVpGK-48" value="" style="edgeStyle=entityRelationEdgeStyle;startArrow=none;endArrow=none;segment=10;curved=1;entryX=0.008;entryY=0.318;entryDx=0;entryDy=0;entryPerimeter=0;exitX=0.25;exitY=1;exitDx=0;exitDy=0;" parent="1" source="T47zWwT-9xR79p9-MtNg-2" target="2LREq_vUWXgBy6xoVpGK-41" edge="1">
          <mxGeometry relative="1" as="geometry">
            <mxPoint x="1985.25" y="-192.5" as="sourcePoint" />
            <mxPoint x="1941.25" y="-105" as="targetPoint" />
          </mxGeometry>
        </mxCell>
        <mxCell id="2LREq_vUWXgBy6xoVpGK-49" value="" style="edgeStyle=entityRelationEdgeStyle;startArrow=none;endArrow=none;segment=10;curved=1;exitX=0.216;exitY=0.998;exitDx=0;exitDy=0;exitPerimeter=0;" parent="1" source="T47zWwT-9xR79p9-MtNg-2" target="2LREq_vUWXgBy6xoVpGK-39" edge="1">
          <mxGeometry relative="1" as="geometry">
            <mxPoint x="1960.25" y="-218.5" as="sourcePoint" />
            <mxPoint x="2012.75" y="-102.5" as="targetPoint" />
          </mxGeometry>
        </mxCell>
        <mxCell id="2LREq_vUWXgBy6xoVpGK-50" value="" style="edgeStyle=entityRelationEdgeStyle;startArrow=none;endArrow=none;segment=10;curved=1;exitX=0.25;exitY=1;exitDx=0;exitDy=0;" parent="1" source="T47zWwT-9xR79p9-MtNg-2" target="2LREq_vUWXgBy6xoVpGK-46" edge="1">
          <mxGeometry relative="1" as="geometry">
            <mxPoint x="1970.25" y="-208.5" as="sourcePoint" />
            <mxPoint x="2006.75" y="-74.5" as="targetPoint" />
          </mxGeometry>
        </mxCell>
        <mxCell id="2LREq_vUWXgBy6xoVpGK-51" value="" style="edgeStyle=entityRelationEdgeStyle;startArrow=none;endArrow=none;segment=10;curved=1;exitX=0.25;exitY=1;exitDx=0;exitDy=0;" parent="1" source="T47zWwT-9xR79p9-MtNg-2" target="2LREq_vUWXgBy6xoVpGK-45" edge="1">
          <mxGeometry relative="1" as="geometry">
            <mxPoint x="2001.75" y="-192.5" as="sourcePoint" />
            <mxPoint x="2001.25" y="-41" as="targetPoint" />
          </mxGeometry>
        </mxCell>
        <mxCell id="2LREq_vUWXgBy6xoVpGK-52" value="" style="edgeStyle=entityRelationEdgeStyle;startArrow=none;endArrow=none;segment=10;curved=1;exitX=0.25;exitY=1;exitDx=0;exitDy=0;" parent="1" source="T47zWwT-9xR79p9-MtNg-2" target="2LREq_vUWXgBy6xoVpGK-47" edge="1">
          <mxGeometry relative="1" as="geometry">
            <mxPoint x="2001.75" y="-192.5" as="sourcePoint" />
            <mxPoint x="2002.25" y="-13" as="targetPoint" />
          </mxGeometry>
        </mxCell>
        <mxCell id="2LREq_vUWXgBy6xoVpGK-54" value="" style="edgeStyle=entityRelationEdgeStyle;startArrow=none;endArrow=none;segment=10;curved=1;exitX=0.25;exitY=1;exitDx=0;exitDy=0;" parent="1" source="T47zWwT-9xR79p9-MtNg-2" target="2LREq_vUWXgBy6xoVpGK-42" edge="1">
          <mxGeometry relative="1" as="geometry">
            <mxPoint x="2001.75" y="-192.5" as="sourcePoint" />
            <mxPoint x="1997.25" y="36" as="targetPoint" />
          </mxGeometry>
        </mxCell>
        <UserObject label="Swam64 Data&lt;br&gt;Accelerator" link="https://www.swarm64.com/swarm64-da" id="2LREq_vUWXgBy6xoVpGK-56">
          <mxCell style="whiteSpace=wrap;html=1;shape=partialRectangle;top=0;left=0;bottom=1;right=0;points=[[0,1],[1,1]];strokeColor=#666666;fillColor=#f5f5f5;align=left;verticalAlign=middle;routingCenterY=0.5;snapToPoint=1;container=1;recursiveResize=0;autosize=1;treeFolding=1;treeMoving=1;fontColor=#333333;fontSize=10;spacingLeft=14;" parent="1" vertex="1">
            <mxGeometry x="1851" y="-86" width="110" height="30" as="geometry" />
          </mxCell>
        </UserObject>
        <mxCell id="2LREq_vUWXgBy6xoVpGK-57" value="" style="edgeStyle=entityRelationEdgeStyle;startArrow=none;endArrow=none;segment=10;curved=1;entryX=0.003;entryY=0.24;entryDx=0;entryDy=0;entryPerimeter=0;exitX=0.25;exitY=1;exitDx=0;exitDy=0;" parent="1" source="QQFrIH2gePDctSpPwOKv-10" target="2LREq_vUWXgBy6xoVpGK-56" edge="1">
          <mxGeometry relative="1" as="geometry">
            <mxPoint x="1807.5" y="-104.5" as="sourcePoint" />
            <mxPoint x="1840.5" y="-74.5" as="targetPoint" />
          </mxGeometry>
        </mxCell>
        <UserObject label="pg-storm GPU &lt;br&gt;Accelerator" link="https://github.com/heterodb/pg-strom" id="8VRheUsqfsgYY5pOcE5k-1">
          <mxCell style="whiteSpace=wrap;html=1;shape=partialRectangle;top=0;left=0;bottom=1;right=0;points=[[0,1],[1,1]];strokeColor=#666666;fillColor=#f5f5f5;align=left;verticalAlign=middle;routingCenterY=0.5;snapToPoint=1;container=1;recursiveResize=0;autosize=1;treeFolding=1;treeMoving=1;fontColor=#333333;fontSize=10;spacingLeft=14;" parent="1" vertex="1">
            <mxGeometry x="1850.5" y="-46" width="110" height="30" as="geometry" />
          </mxCell>
        </UserObject>
        <mxCell id="8VRheUsqfsgYY5pOcE5k-2" value="" style="edgeStyle=entityRelationEdgeStyle;startArrow=none;endArrow=none;segment=10;curved=1;entryX=0.029;entryY=0.05;entryDx=0;entryDy=0;entryPerimeter=0;exitX=0.25;exitY=1;exitDx=0;exitDy=0;" parent="1" source="QQFrIH2gePDctSpPwOKv-10" target="8VRheUsqfsgYY5pOcE5k-1" edge="1">
          <mxGeometry relative="1" as="geometry">
            <mxPoint x="1810.5" y="-104.5" as="sourcePoint" />
            <mxPoint x="1840.5" y="-43.5" as="targetPoint" />
          </mxGeometry>
        </mxCell>
        <UserObject label="PL/pgSQL" link="https://www.postgresql.org/docs/current/plpgsql.html" id="8VRheUsqfsgYY5pOcE5k-4">
          <mxCell style="whiteSpace=wrap;html=1;shape=partialRectangle;top=0;left=0;bottom=1;right=0;points=[[0,1],[1,1]];strokeColor=#666666;fillColor=#f5f5f5;align=left;verticalAlign=middle;routingCenterY=0.5;snapToPoint=1;container=1;recursiveResize=0;autosize=1;treeFolding=1;treeMoving=1;fontColor=#333333;fontSize=10;spacingLeft=14;" parent="1" vertex="1">
            <mxGeometry x="1139" y="-353.5" width="90" height="20" as="geometry" />
          </mxCell>
        </UserObject>
        <mxCell id="8VRheUsqfsgYY5pOcE5k-5" value="" style="edgeStyle=entityRelationEdgeStyle;startArrow=none;endArrow=none;segment=10;curved=1;exitX=0.5;exitY=1;exitDx=0;exitDy=0;" parent="1" source="QQFrIH2gePDctSpPwOKv-1" target="8VRheUsqfsgYY5pOcE5k-4" edge="1">
          <mxGeometry relative="1" as="geometry">
            <mxPoint x="1188.5" y="-119.5" as="targetPoint" />
            <mxPoint x="1313.5" y="-458.5" as="sourcePoint" />
          </mxGeometry>
        </mxCell>
        <mxCell id="8VRheUsqfsgYY5pOcE5k-6" value="" style="edgeStyle=orthogonalEdgeStyle;startArrow=none;endArrow=none;segment=10;curved=1;entryX=0.5;entryY=0;entryDx=0;entryDy=0;" parent="1" source="T47zWwT-9xR79p9-MtNg-1" target="QQFrIH2gePDctSpPwOKv-1" edge="1">
          <mxGeometry relative="1" as="geometry">
            <mxPoint x="1450" y="-370" as="targetPoint" />
            <mxPoint x="1440" y="-275" as="sourcePoint" />
          </mxGeometry>
        </mxCell>
        <UserObject label="PL/Python" link="https://www.postgresql.org/docs/current/plpython.html" id="8VRheUsqfsgYY5pOcE5k-7">
          <mxCell style="whiteSpace=wrap;html=1;shape=partialRectangle;top=0;left=0;bottom=1;right=0;points=[[0,1],[1,1]];strokeColor=#666666;fillColor=#f5f5f5;align=left;verticalAlign=middle;routingCenterY=0.5;snapToPoint=1;container=1;recursiveResize=0;autosize=1;treeFolding=1;treeMoving=1;fontColor=#333333;fontSize=10;spacingLeft=14;" parent="1" vertex="1">
            <mxGeometry x="1139" y="-326" width="90" height="20" as="geometry" />
          </mxCell>
        </UserObject>
        <mxCell id="8VRheUsqfsgYY5pOcE5k-8" value="" style="edgeStyle=entityRelationEdgeStyle;startArrow=none;endArrow=none;segment=10;curved=1;exitX=0.5;exitY=1;exitDx=0;exitDy=0;" parent="1" source="QQFrIH2gePDctSpPwOKv-1" target="8VRheUsqfsgYY5pOcE5k-7" edge="1">
          <mxGeometry relative="1" as="geometry">
            <mxPoint x="1198.5" y="-90.5" as="targetPoint" />
            <mxPoint x="1239" y="-428" as="sourcePoint" />
          </mxGeometry>
        </mxCell>
        <UserObject label="PL/V8 Javascript" link="https://github.com/plv8/plv8" id="8VRheUsqfsgYY5pOcE5k-9">
          <mxCell style="whiteSpace=wrap;html=1;shape=partialRectangle;top=0;left=0;bottom=1;right=0;points=[[0,1],[1,1]];strokeColor=#666666;fillColor=#f5f5f5;align=left;verticalAlign=middle;routingCenterY=0.5;snapToPoint=1;container=1;recursiveResize=0;autosize=1;treeFolding=1;treeMoving=1;fontColor=#333333;fontSize=10;spacingLeft=14;" parent="1" vertex="1">
            <mxGeometry x="1139" y="-299" width="101" height="20" as="geometry" />
          </mxCell>
        </UserObject>
        <mxCell id="8VRheUsqfsgYY5pOcE5k-10" value="" style="edgeStyle=entityRelationEdgeStyle;startArrow=none;endArrow=none;segment=10;curved=1;exitX=0.5;exitY=1;exitDx=0;exitDy=0;" parent="1" source="QQFrIH2gePDctSpPwOKv-1" target="8VRheUsqfsgYY5pOcE5k-9" edge="1">
          <mxGeometry relative="1" as="geometry">
            <mxPoint x="1188.5" y="-70" as="targetPoint" />
            <mxPoint x="1239" y="-378.5" as="sourcePoint" />
          </mxGeometry>
        </mxCell>
        <UserObject label="PL/Java" link="https://github.com/tada/pljava" id="8VRheUsqfsgYY5pOcE5k-11">
          <mxCell style="whiteSpace=wrap;html=1;shape=partialRectangle;top=0;left=0;bottom=1;right=0;points=[[0,1],[1,1]];strokeColor=#666666;fillColor=#f5f5f5;align=left;verticalAlign=middle;routingCenterY=0.5;snapToPoint=1;container=1;recursiveResize=0;autosize=1;treeFolding=1;treeMoving=1;fontColor=#333333;fontSize=10;spacingLeft=14;" parent="1" vertex="1">
            <mxGeometry x="1139" y="-272" width="140" height="20" as="geometry" />
          </mxCell>
        </UserObject>
        <mxCell id="8VRheUsqfsgYY5pOcE5k-12" value="" style="edgeStyle=entityRelationEdgeStyle;startArrow=none;endArrow=none;segment=10;curved=1;exitX=0.5;exitY=1;exitDx=0;exitDy=0;entryX=1;entryY=0.56;entryDx=0;entryDy=0;entryPerimeter=0;" parent="1" source="QQFrIH2gePDctSpPwOKv-1" target="8VRheUsqfsgYY5pOcE5k-11" edge="1">
          <mxGeometry relative="1" as="geometry">
            <mxPoint x="1188.5" y="-50" as="targetPoint" />
            <mxPoint x="1239" y="-358.5" as="sourcePoint" />
          </mxGeometry>
        </mxCell>
        <UserObject label="Externally Maintained &lt;br&gt;Languages" link="https://www.postgresql.org/docs/current/external-pl.html" id="8VRheUsqfsgYY5pOcE5k-13">
          <mxCell style="whiteSpace=wrap;html=1;shape=partialRectangle;top=0;left=0;bottom=1;right=0;points=[[0,1],[1,1]];strokeColor=#666666;fillColor=#f5f5f5;align=left;verticalAlign=middle;routingCenterY=0.5;snapToPoint=1;container=1;recursiveResize=0;autosize=1;treeFolding=1;treeMoving=1;fontColor=#333333;fontSize=10;spacingLeft=14;" parent="1" vertex="1">
            <mxGeometry x="1139" y="-249.5" width="150" height="30" as="geometry" />
          </mxCell>
        </UserObject>
        <mxCell id="8VRheUsqfsgYY5pOcE5k-14" value="" style="edgeStyle=entityRelationEdgeStyle;startArrow=none;endArrow=none;segment=10;curved=1;exitX=0.5;exitY=1;exitDx=0;exitDy=0;" parent="1" source="QQFrIH2gePDctSpPwOKv-1" target="8VRheUsqfsgYY5pOcE5k-13" edge="1">
          <mxGeometry relative="1" as="geometry">
            <mxPoint x="1188.5" y="-19.5" as="targetPoint" />
            <mxPoint x="1239" y="-328" as="sourcePoint" />
          </mxGeometry>
        </mxCell>
        <UserObject label="Hasura" link="https://hasura.io/" id="8VRheUsqfsgYY5pOcE5k-15">
          <mxCell style="whiteSpace=wrap;html=1;shape=partialRectangle;top=0;left=0;bottom=1;right=0;points=[[0,1],[1,1]];strokeColor=#666666;fillColor=#f5f5f5;align=left;verticalAlign=middle;routingCenterY=0.5;snapToPoint=1;container=1;recursiveResize=0;autosize=1;treeFolding=1;treeMoving=1;fontColor=#333333;fontSize=10;spacingLeft=14;flipV=0;flipH=1;" parent="1" vertex="1">
            <mxGeometry x="2069.5" y="-828" width="70" height="20" as="geometry" />
          </mxCell>
        </UserObject>
        <mxCell id="8VRheUsqfsgYY5pOcE5k-16" value="" style="edgeStyle=orthogonalEdgeStyle;startArrow=none;endArrow=none;segment=10;curved=1;exitX=1;exitY=0.25;exitDx=0;exitDy=0;entryX=0.997;entryY=0.549;entryDx=0;entryDy=0;entryPerimeter=0;" parent="1" source="QQFrIH2gePDctSpPwOKv-3" target="8VRheUsqfsgYY5pOcE5k-15" edge="1">
          <mxGeometry relative="1" as="geometry">
            <mxPoint x="1573.5" y="-342.5" as="targetPoint" />
            <mxPoint x="1631.6999999999998" y="-606.0999999999999" as="sourcePoint" />
          </mxGeometry>
        </mxCell>
        <mxCell id="8VRheUsqfsgYY5pOcE5k-17" value="" style="startArrow=none;endArrow=none;segment=10;exitX=0.5;exitY=0;exitDx=0;exitDy=0;entryX=0;entryY=0.5;entryDx=0;entryDy=0;edgeStyle=orthogonalEdgeStyle;curved=1;" parent="1" source="T47zWwT-9xR79p9-MtNg-1" target="QQFrIH2gePDctSpPwOKv-3" edge="1">
          <mxGeometry relative="1" as="geometry">
            <mxPoint x="1677.1999999999998" y="-576.3" as="targetPoint" />
            <mxPoint x="1659.6" y="-527.5" as="sourcePoint" />
            <Array as="points">
              <mxPoint x="1652" y="-700" />
              <mxPoint x="1880" y="-700" />
            </Array>
          </mxGeometry>
        </mxCell>
        <UserObject label="Postgrest" link="https://github.com/PostgREST/postgrest" id="8VRheUsqfsgYY5pOcE5k-18">
          <mxCell style="whiteSpace=wrap;html=1;shape=partialRectangle;top=0;left=0;bottom=1;right=0;points=[[0,1],[1,1]];strokeColor=#666666;fillColor=#f5f5f5;align=left;verticalAlign=middle;routingCenterY=0.5;snapToPoint=1;container=1;recursiveResize=0;autosize=1;treeFolding=1;treeMoving=1;fontColor=#333333;fontSize=10;spacingLeft=14;flipV=0;flipH=1;" parent="1" vertex="1">
            <mxGeometry x="2069.5" y="-804.5" width="80" height="20" as="geometry" />
          </mxCell>
        </UserObject>
        <mxCell id="8VRheUsqfsgYY5pOcE5k-19" value="" style="edgeStyle=orthogonalEdgeStyle;startArrow=none;endArrow=none;segment=10;curved=1;exitX=1;exitY=0.25;exitDx=0;exitDy=0;entryX=0.997;entryY=0.549;entryDx=0;entryDy=0;entryPerimeter=0;" parent="1" source="QQFrIH2gePDctSpPwOKv-3" target="8VRheUsqfsgYY5pOcE5k-18" edge="1">
          <mxGeometry relative="1" as="geometry">
            <mxPoint x="1573.5" y="-323.5" as="targetPoint" />
            <mxPoint x="1631.6999999999998" y="-606.0999999999999" as="sourcePoint" />
          </mxGeometry>
        </mxCell>
        <UserObject label="Postgraphile" link="https://www.graphile.org/postgraphile/" id="8VRheUsqfsgYY5pOcE5k-20">
          <mxCell style="whiteSpace=wrap;html=1;shape=partialRectangle;top=0;left=0;bottom=1;right=0;points=[[0,1],[1,1]];strokeColor=#666666;fillColor=#f5f5f5;align=left;verticalAlign=middle;routingCenterY=0.5;snapToPoint=1;container=1;recursiveResize=0;autosize=1;treeFolding=1;treeMoving=1;fontColor=#333333;fontSize=10;spacingLeft=14;flipV=0;flipH=1;" parent="1" vertex="1">
            <mxGeometry x="2070" y="-782" width="81" height="22" as="geometry" />
          </mxCell>
        </UserObject>
        <mxCell id="8VRheUsqfsgYY5pOcE5k-21" value="" style="edgeStyle=orthogonalEdgeStyle;startArrow=none;endArrow=none;segment=10;curved=1;exitX=1;exitY=0.25;exitDx=0;exitDy=0;entryX=0.997;entryY=0.549;entryDx=0;entryDy=0;entryPerimeter=0;" parent="1" source="QQFrIH2gePDctSpPwOKv-3" target="8VRheUsqfsgYY5pOcE5k-20" edge="1">
          <mxGeometry relative="1" as="geometry">
            <mxPoint x="1573.5" y="-292" as="targetPoint" />
            <mxPoint x="1631.6999999999998" y="-606.0999999999999" as="sourcePoint" />
          </mxGeometry>
        </mxCell>
        <UserObject label="CLI Clients" id="k2vKGYnpJEisK7GG5qBS-13">
          <mxCell style="whiteSpace=wrap;html=1;rounded=1;arcSize=50;align=center;verticalAlign=middle;container=1;recursiveResize=0;strokeWidth=1;autosize=1;spacing=4;treeFolding=1;treeMoving=1;fillColor=#ffe6cc;strokeColor=#d79b00;" parent="1" vertex="1">
            <mxGeometry x="1380.5" y="-744.5" width="100" height="30" as="geometry" />
          </mxCell>
        </UserObject>
        <mxCell id="k2vKGYnpJEisK7GG5qBS-14" value="" style="edgeStyle=orthogonalEdgeStyle;startArrow=none;endArrow=none;segment=10;curved=1;exitX=0.25;exitY=0;exitDx=0;exitDy=0;entryX=0.526;entryY=1.213;entryDx=0;entryDy=0;entryPerimeter=0;fontSize=10;fontColor=#333333;align=left;strokeColor=#666666;fillColor=#f5f5f5;spacingLeft=14;" parent="1" source="k2vKGYnpJEisK7GG5qBS-13" target="k2vKGYnpJEisK7GG5qBS-15" edge="1">
          <mxGeometry relative="1" as="geometry">
            <mxPoint x="1338" y="-441" as="targetPoint" />
            <mxPoint x="1396.1999999999998" y="-704.5999999999999" as="sourcePoint" />
          </mxGeometry>
        </mxCell>
        <UserObject label="psql" link="https://www.postgresql.org/docs/current/app-psql.html" id="k2vKGYnpJEisK7GG5qBS-15">
          <mxCell style="whiteSpace=wrap;html=1;shape=partialRectangle;top=0;left=0;bottom=1;right=0;points=[[0,1],[1,1]];strokeColor=#666666;fillColor=#f5f5f5;align=left;verticalAlign=middle;routingCenterY=0.5;snapToPoint=1;container=1;recursiveResize=0;autosize=1;treeFolding=1;treeMoving=1;fontColor=#333333;fontSize=10;spacingLeft=14;" parent="1" vertex="1">
            <mxGeometry x="1349" y="-802" width="50" height="20" as="geometry" />
          </mxCell>
        </UserObject>
        <mxCell id="k2vKGYnpJEisK7GG5qBS-16" value="" style="edgeStyle=orthogonalEdgeStyle;startArrow=none;endArrow=none;segment=10;curved=1;exitX=0.5;exitY=0;exitDx=0;exitDy=0;entryX=0.525;entryY=1.08;entryDx=0;entryDy=0;entryPerimeter=0;fontSize=10;fontColor=#333333;align=left;strokeColor=#666666;fillColor=#f5f5f5;spacingLeft=14;" parent="1" source="k2vKGYnpJEisK7GG5qBS-13" target="k2vKGYnpJEisK7GG5qBS-17" edge="1">
          <mxGeometry relative="1" as="geometry">
            <mxPoint x="1338" y="-404" as="targetPoint" />
            <mxPoint x="1396.1999999999998" y="-667.5999999999999" as="sourcePoint" />
          </mxGeometry>
        </mxCell>
        <UserObject label="pgcli" link="https://github.com/dbcli/pgcli" id="k2vKGYnpJEisK7GG5qBS-17">
          <mxCell style="whiteSpace=wrap;html=1;shape=partialRectangle;top=0;left=0;bottom=1;right=0;points=[[0,1],[1,1]];strokeColor=#666666;fillColor=#f5f5f5;align=left;verticalAlign=middle;routingCenterY=0.5;snapToPoint=1;container=1;recursiveResize=0;autosize=1;treeFolding=1;treeMoving=1;fontColor=#333333;fontSize=10;spacingLeft=14;" parent="1" vertex="1">
            <mxGeometry x="1435.5" y="-802" width="60" height="20" as="geometry" />
          </mxCell>
        </UserObject>
        <mxCell id="k2vKGYnpJEisK7GG5qBS-23" value="What pg centric tool you use regularly that is not on the diagram?" style="text;strokeColor=#666666;fillColor=#f5f5f5;align=left;verticalAlign=middle;whiteSpace=wrap;labelPosition=center;verticalLabelPosition=middle;html=1;fontSize=10;fontColor=#333333;spacingLeft=14;" parent="1" vertex="1">
          <mxGeometry x="1110" y="-50" width="320" height="32" as="geometry" />
        </mxCell>
        <UserObject label="Consulting" link="https://www.postgresql.org/support/professional_support/northamerica/" id="k2vKGYnpJEisK7GG5qBS-24">
          <mxCell style="whiteSpace=wrap;html=1;rounded=1;arcSize=50;align=center;verticalAlign=middle;container=1;recursiveResize=0;strokeWidth=1;autosize=1;spacing=4;treeFolding=1;treeMoving=1;fillColor=#ffe6cc;strokeColor=#d79b00;flipH=0;flipV=0;" parent="1" vertex="1">
            <mxGeometry x="1309" y="-645.5" width="100" height="30" as="geometry" />
          </mxCell>
        </UserObject>
        <mxCell id="k2vKGYnpJEisK7GG5qBS-25" value="" style="edgeStyle=orthogonalEdgeStyle;startArrow=none;endArrow=none;segment=10;curved=1;fontSize=10;fontColor=#333333;align=left;strokeColor=#666666;fillColor=#f5f5f5;spacingLeft=14;entryX=1.003;entryY=0.438;entryDx=0;entryDy=0;entryPerimeter=0;" parent="1" source="k2vKGYnpJEisK7GG5qBS-24" target="k2vKGYnpJEisK7GG5qBS-26" edge="1">
          <mxGeometry relative="1" as="geometry">
            <mxPoint x="949" y="-631" as="sourcePoint" />
            <mxPoint x="1204" y="-613.5" as="targetPoint" />
          </mxGeometry>
        </mxCell>
        <UserObject label="crunchydata" link="https://www.crunchydata.com/" id="k2vKGYnpJEisK7GG5qBS-26">
          <mxCell style="whiteSpace=wrap;html=1;shape=partialRectangle;top=0;left=0;bottom=1;right=0;points=[[0,1],[1,1]];strokeColor=#666666;fillColor=#f5f5f5;align=left;verticalAlign=middle;routingCenterY=0.5;snapToPoint=1;container=1;recursiveResize=0;autosize=1;treeFolding=1;treeMoving=1;fontColor=#333333;fontSize=10;spacingLeft=14;flipV=0;" parent="1" vertex="1">
            <mxGeometry x="1119" y="-626" width="90" height="20" as="geometry" />
          </mxCell>
        </UserObject>
        <UserObject label="EnterpriseDB" link="https://www.enterprisedb.com/" id="k2vKGYnpJEisK7GG5qBS-27">
          <mxCell style="whiteSpace=wrap;html=1;shape=partialRectangle;top=0;left=0;bottom=1;right=0;points=[[0,1],[1,1]];strokeColor=#666666;fillColor=#f5f5f5;align=left;verticalAlign=middle;routingCenterY=0.5;snapToPoint=1;container=1;recursiveResize=0;autosize=1;treeFolding=1;treeMoving=1;fontColor=#333333;fontSize=10;spacingLeft=14;flipV=0;" parent="1" vertex="1">
            <mxGeometry x="1119" y="-596" width="90" height="20" as="geometry" />
          </mxCell>
        </UserObject>
        <UserObject label="Command Prompt" link="http://www.commandprompt.com/" id="k2vKGYnpJEisK7GG5qBS-28">
          <mxCell style="whiteSpace=wrap;html=1;shape=partialRectangle;top=0;left=0;bottom=1;right=0;points=[[0,1],[1,1]];strokeColor=#666666;fillColor=#f5f5f5;align=left;verticalAlign=middle;routingCenterY=0.5;snapToPoint=1;container=1;recursiveResize=0;autosize=1;treeFolding=1;treeMoving=1;fontColor=#333333;fontSize=10;spacingLeft=14;flipV=0;" parent="1" vertex="1">
            <mxGeometry x="1119" y="-572" width="110" height="20" as="geometry" />
          </mxCell>
        </UserObject>
        <mxCell id="k2vKGYnpJEisK7GG5qBS-30" value="" style="edgeStyle=orthogonalEdgeStyle;startArrow=none;endArrow=none;segment=10;curved=1;fontSize=10;fontColor=#333333;align=left;strokeColor=#666666;fillColor=#f5f5f5;spacingLeft=14;exitX=0;exitY=0.5;exitDx=0;exitDy=0;entryX=1.024;entryY=0.5;entryDx=0;entryDy=0;entryPerimeter=0;" parent="1" source="k2vKGYnpJEisK7GG5qBS-24" target="k2vKGYnpJEisK7GG5qBS-27" edge="1">
          <mxGeometry relative="1" as="geometry">
            <mxPoint x="1084" y="-567.5" as="sourcePoint" />
            <mxPoint x="1270" y="-580" as="targetPoint" />
            <Array as="points">
              <mxPoint x="1309" y="-610" />
              <mxPoint x="1211" y="-610" />
            </Array>
          </mxGeometry>
        </mxCell>
        <UserObject label="debezium.io" link="https://debezium.io/" id="k2vKGYnpJEisK7GG5qBS-38">
          <mxCell style="whiteSpace=wrap;html=1;shape=partialRectangle;top=0;left=0;bottom=1;right=0;points=[[0,1],[1,1]];strokeColor=#666666;fillColor=#f5f5f5;align=left;verticalAlign=middle;routingCenterY=0.5;snapToPoint=1;container=1;recursiveResize=0;autosize=1;treeFolding=1;treeMoving=1;fontColor=#333333;flipV=0;fontSize=10;spacingLeft=14;flipH=0;" parent="1" vertex="1">
            <mxGeometry x="1841" y="-515" width="100" height="20" as="geometry" />
          </mxCell>
        </UserObject>
        <mxCell id="k2vKGYnpJEisK7GG5qBS-39" value="" style="edgeStyle=entityRelationEdgeStyle;startArrow=none;endArrow=none;segment=10;curved=1;entryX=0.046;entryY=0.319;entryDx=0;entryDy=0;entryPerimeter=0;exitX=1;exitY=0.5;exitDx=0;exitDy=0;" parent="1" source="2LREq_vUWXgBy6xoVpGK-26" target="k2vKGYnpJEisK7GG5qBS-38" edge="1">
          <mxGeometry relative="1" as="geometry">
            <mxPoint x="1934.5000000000005" y="-518" as="sourcePoint" />
            <mxPoint x="2024.666666666667" y="-413.83333333333326" as="targetPoint" />
          </mxGeometry>
        </mxCell>
        <UserObject label="Heroku" link="https://www.heroku.com/postgres" id="2LREq_vUWXgBy6xoVpGK-10">
          <mxCell style="whiteSpace=wrap;html=1;shape=partialRectangle;top=0;left=0;bottom=1;right=0;points=[[0,1],[1,1]];strokeColor=#666666;fillColor=#f5f5f5;align=left;verticalAlign=middle;routingCenterY=0.5;snapToPoint=1;container=1;recursiveResize=0;autosize=1;treeFolding=1;treeMoving=1;fontColor=#333333;fontSize=10;spacingLeft=14;" parent="1" vertex="1" collapsed="1">
            <mxGeometry x="1910.5" y="-299.5" width="53" height="20" as="geometry" />
          </mxCell>
        </UserObject>
        <mxCell id="k2vKGYnpJEisK7GG5qBS-40" value="" style="edgeStyle=entityRelationEdgeStyle;startArrow=none;endArrow=none;segment=10;curved=1;entryX=0.048;entryY=0.569;entryDx=0;entryDy=0;entryPerimeter=0;exitX=0.25;exitY=1;exitDx=0;exitDy=0;" parent="1" source="T47zWwT-9xR79p9-MtNg-4" target="T47zWwT-9xR79p9-MtNg-7" edge="1">
          <mxGeometry relative="1" as="geometry">
            <mxPoint x="1747" y="-205.5" as="sourcePoint" />
            <mxPoint x="1792.166666666667" y="-255.83333333333326" as="targetPoint" />
          </mxGeometry>
        </mxCell>
        <UserObject label="Azure Data Studio &lt;br&gt;SQL Notebook" link="https://azure.microsoft.com/en-us/blog/azure-data-studio-an-open-source-gui-editor-for-postgres/" id="8VRheUsqfsgYY5pOcE5k-36">
          <mxCell style="whiteSpace=wrap;html=1;shape=partialRectangle;top=0;left=0;bottom=1;right=0;points=[[0,1],[1,1]];strokeColor=#666666;fillColor=#f5f5f5;align=left;verticalAlign=middle;routingCenterY=0.5;snapToPoint=1;container=1;recursiveResize=0;autosize=1;treeFolding=1;treeMoving=1;fontColor=#333333;fontSize=10;spacingLeft=14;" parent="1" vertex="1">
            <mxGeometry x="1673" y="-835.5" width="130" height="30" as="geometry" />
          </mxCell>
        </UserObject>
        <mxCell id="8VRheUsqfsgYY5pOcE5k-35" value="" style="edgeStyle=orthogonalEdgeStyle;startArrow=none;endArrow=none;segment=10;exitX=1;exitY=0.5;exitDx=0;exitDy=0;entryX=0.441;entryY=1.056;entryDx=0;entryDy=0;entryPerimeter=0;curved=1;" parent="1" source="y5E1LS35C2M6shkiyCh6-2" target="8VRheUsqfsgYY5pOcE5k-36" edge="1">
          <mxGeometry relative="1" as="geometry">
            <mxPoint x="1617.5" y="-784.5" as="targetPoint" />
            <mxPoint x="1661.7857142857142" y="-741.5" as="sourcePoint" />
          </mxGeometry>
        </mxCell>
        <UserObject label="phpPgAdmin" link="https://github.com/phppgadmin/phppgadmin" id="8VRheUsqfsgYY5pOcE5k-34">
          <mxCell style="whiteSpace=wrap;html=1;shape=partialRectangle;top=0;left=0;bottom=1;right=0;points=[[0,1],[1,1]];strokeColor=#666666;fillColor=#f5f5f5;align=left;verticalAlign=middle;routingCenterY=0.5;snapToPoint=1;container=1;recursiveResize=0;autosize=1;treeFolding=1;treeMoving=1;fontColor=#333333;fontSize=10;spacingLeft=14;" parent="1" vertex="1">
            <mxGeometry x="1597.5" y="-805.5" width="100" height="20" as="geometry" />
          </mxCell>
        </UserObject>
        <mxCell id="8VRheUsqfsgYY5pOcE5k-33" value="" style="edgeStyle=orthogonalEdgeStyle;startArrow=none;endArrow=none;segment=10;curved=1;entryX=0.55;entryY=1.023;entryDx=0;entryDy=0;entryPerimeter=0;exitX=0.5;exitY=0;exitDx=0;exitDy=0;" parent="1" source="y5E1LS35C2M6shkiyCh6-2" target="8VRheUsqfsgYY5pOcE5k-34" edge="1">
          <mxGeometry relative="1" as="geometry">
            <mxPoint x="1486.5" y="-604.5" as="targetPoint" />
            <mxPoint x="1637.2142857142858" y="-741.5" as="sourcePoint" />
          </mxGeometry>
        </mxCell>
        <UserObject label="pgWeb" link="https://github.com/sosedoff/pgweb" id="8VRheUsqfsgYY5pOcE5k-32">
          <mxCell style="whiteSpace=wrap;html=1;shape=partialRectangle;top=0;left=0;bottom=1;right=0;points=[[0,1],[1,1]];strokeColor=#666666;fillColor=#f5f5f5;align=left;verticalAlign=middle;routingCenterY=0.5;snapToPoint=1;container=1;recursiveResize=0;autosize=1;treeFolding=1;treeMoving=1;fontColor=#333333;fontSize=10;spacingLeft=14;" parent="1" vertex="1">
            <mxGeometry x="1507" y="-825.5" width="70" height="20" as="geometry" />
          </mxCell>
        </UserObject>
        <mxCell id="8VRheUsqfsgYY5pOcE5k-31" value="" style="edgeStyle=orthogonalEdgeStyle;startArrow=none;endArrow=none;segment=10;curved=1;exitX=0.25;exitY=0;exitDx=0;exitDy=0;entryX=0.905;entryY=1.115;entryDx=0;entryDy=0;entryPerimeter=0;" parent="1" source="y5E1LS35C2M6shkiyCh6-2" target="8VRheUsqfsgYY5pOcE5k-32" edge="1">
          <mxGeometry relative="1" as="geometry">
            <mxPoint x="1486.5" y="-642.5" as="targetPoint" />
            <mxPoint x="1612.0714285714284" y="-741.5" as="sourcePoint" />
          </mxGeometry>
        </mxCell>
        <UserObject label="pgAdmin" link="https://www.pgadmin.org/" id="8VRheUsqfsgYY5pOcE5k-30">
          <mxCell style="whiteSpace=wrap;html=1;shape=partialRectangle;top=0;left=0;bottom=1;right=0;points=[[0,1],[1,1]];strokeColor=#666666;fillColor=#f5f5f5;align=left;verticalAlign=middle;routingCenterY=0.5;snapToPoint=1;container=1;recursiveResize=0;autosize=1;treeFolding=1;treeMoving=1;fontColor=#333333;fontSize=10;spacingLeft=14;" parent="1" vertex="1">
            <mxGeometry x="1507" y="-767.5" width="80" height="20" as="geometry" />
          </mxCell>
        </UserObject>
        <mxCell id="8VRheUsqfsgYY5pOcE5k-29" value="" style="edgeStyle=orthogonalEdgeStyle;startArrow=none;endArrow=none;segment=10;curved=1;exitX=0;exitY=0.5;exitDx=0;exitDy=0;entryX=0.817;entryY=1.048;entryDx=0;entryDy=0;entryPerimeter=0;" parent="1" source="y5E1LS35C2M6shkiyCh6-2" target="8VRheUsqfsgYY5pOcE5k-30" edge="1">
          <mxGeometry relative="1" as="geometry">
            <mxPoint x="1486.5" y="-679.5" as="targetPoint" />
            <mxPoint x="1586.9285714285716" y="-726.6428571428571" as="sourcePoint" />
          </mxGeometry>
        </mxCell>
        <UserObject label="EletroCRUD" link="https://github.com/garrylachman/ElectroCRUD" id="k2vKGYnpJEisK7GG5qBS-42">
          <mxCell style="whiteSpace=wrap;html=1;shape=partialRectangle;top=0;left=0;bottom=1;right=0;points=[[0,1],[1,1]];strokeColor=#666666;fillColor=#f5f5f5;align=left;verticalAlign=middle;routingCenterY=0.5;snapToPoint=1;container=1;recursiveResize=0;autosize=1;treeFolding=1;treeMoving=1;fontColor=#333333;fontSize=10;spacingLeft=14;" parent="1" vertex="1">
            <mxGeometry x="1754" y="-789" width="100" height="20" as="geometry" />
          </mxCell>
        </UserObject>
        <mxCell id="y5E1LS35C2M6shkiyCh6-1" value="" style="edgeStyle=orthogonalEdgeStyle;startArrow=none;endArrow=none;segment=10;exitX=1;exitY=0.5;exitDx=0;exitDy=0;curved=1;entryX=0.442;entryY=0.888;entryDx=0;entryDy=0;entryPerimeter=0;" parent="1" source="y5E1LS35C2M6shkiyCh6-2" target="k2vKGYnpJEisK7GG5qBS-42" edge="1">
          <mxGeometry relative="1" as="geometry">
            <mxPoint x="1919.7142857142858" y="-676.0714285714286" as="targetPoint" />
            <mxPoint x="1977.4285714285716" y="-694.9285714285714" as="sourcePoint" />
          </mxGeometry>
        </mxCell>
        <UserObject label="GUI Clients" id="y5E1LS35C2M6shkiyCh6-2">
          <mxCell style="whiteSpace=wrap;html=1;rounded=1;arcSize=50;align=center;verticalAlign=middle;container=1;recursiveResize=0;strokeWidth=1;autosize=1;spacing=4;treeFolding=1;treeMoving=1;fillColor=#ffe6cc;strokeColor=#d79b00;" parent="1" vertex="1">
            <mxGeometry x="1592.5" y="-741" width="100" height="30" as="geometry" />
          </mxCell>
        </UserObject>
        <UserObject label="Community" id="y5E1LS35C2M6shkiyCh6-8">
          <mxCell style="whiteSpace=wrap;html=1;rounded=1;arcSize=50;align=center;verticalAlign=middle;container=1;recursiveResize=0;strokeWidth=1;autosize=1;spacing=4;treeFolding=1;treeMoving=1;fillColor=#ffe6cc;strokeColor=#d79b00;" parent="1" vertex="1">
            <mxGeometry x="1254" y="-724.5" width="100" height="30" as="geometry" />
          </mxCell>
        </UserObject>
        <UserObject label="Contributors" link="https://www.postgresql.org/community/contributors/" id="y5E1LS35C2M6shkiyCh6-9">
          <mxCell style="whiteSpace=wrap;html=1;shape=partialRectangle;top=0;left=0;bottom=1;right=0;points=[[0,1],[1,1]];strokeColor=#666666;fillColor=#f5f5f5;align=left;verticalAlign=middle;routingCenterY=0.5;snapToPoint=1;container=1;recursiveResize=0;autosize=1;treeFolding=1;treeMoving=1;fontColor=#333333;fontSize=10;spacingLeft=14;flipV=1;" parent="1" vertex="1">
            <mxGeometry x="1119" y="-732" width="100" height="20" as="geometry" />
          </mxCell>
        </UserObject>
        <mxCell id="y5E1LS35C2M6shkiyCh6-10" value="" style="edgeStyle=orthogonalEdgeStyle;startArrow=none;endArrow=none;segment=10;curved=1;exitX=0;exitY=0.5;exitDx=0;exitDy=0;entryX=0.997;entryY=0.549;entryDx=0;entryDy=0;entryPerimeter=0;" parent="1" source="y5E1LS35C2M6shkiyCh6-8" target="y5E1LS35C2M6shkiyCh6-9" edge="1">
          <mxGeometry relative="1" as="geometry">
            <mxPoint x="1168" y="-476.5" as="targetPoint" />
            <mxPoint x="1226.1999999999998" y="-740.0999999999999" as="sourcePoint" />
          </mxGeometry>
        </mxCell>
        <UserObject label="User Groups" link="https://www.postgresql.org/community/user-groups/" id="y5E1LS35C2M6shkiyCh6-11">
          <mxCell style="whiteSpace=wrap;html=1;shape=partialRectangle;top=0;left=0;bottom=1;right=0;points=[[0,1],[1,1]];strokeColor=#666666;fillColor=#f5f5f5;align=left;verticalAlign=middle;routingCenterY=0.5;snapToPoint=1;container=1;recursiveResize=0;autosize=1;treeFolding=1;treeMoving=1;fontColor=#333333;fontSize=10;spacingLeft=14;flipV=1;" parent="1" vertex="1">
            <mxGeometry x="1119" y="-708" width="100" height="20" as="geometry" />
          </mxCell>
        </UserObject>
        <mxCell id="y5E1LS35C2M6shkiyCh6-12" value="" style="edgeStyle=orthogonalEdgeStyle;startArrow=none;endArrow=none;segment=10;curved=1;exitX=0;exitY=0.5;exitDx=0;exitDy=0;entryX=0.997;entryY=0.549;entryDx=0;entryDy=0;entryPerimeter=0;" parent="1" source="y5E1LS35C2M6shkiyCh6-8" target="y5E1LS35C2M6shkiyCh6-11" edge="1">
          <mxGeometry relative="1" as="geometry">
            <mxPoint x="1168" y="-457.5" as="targetPoint" />
            <mxPoint x="1226.1999999999998" y="-740.0999999999999" as="sourcePoint" />
          </mxGeometry>
        </mxCell>
        <UserObject label="Events" link="https://www.postgresql.org/about/events/" id="y5E1LS35C2M6shkiyCh6-13">
          <mxCell style="whiteSpace=wrap;html=1;shape=partialRectangle;top=0;left=0;bottom=1;right=0;points=[[0,1],[1,1]];strokeColor=#666666;fillColor=#f5f5f5;align=left;verticalAlign=middle;routingCenterY=0.5;snapToPoint=1;container=1;recursiveResize=0;autosize=1;treeFolding=1;treeMoving=1;fontColor=#333333;fontSize=10;spacingLeft=14;flipV=1;" parent="1" vertex="1">
            <mxGeometry x="1119" y="-685" width="80" height="20" as="geometry" />
          </mxCell>
        </UserObject>
        <mxCell id="y5E1LS35C2M6shkiyCh6-14" value="" style="edgeStyle=orthogonalEdgeStyle;startArrow=none;endArrow=none;segment=10;curved=1;exitX=0;exitY=0.5;exitDx=0;exitDy=0;entryX=0.997;entryY=0.549;entryDx=0;entryDy=0;entryPerimeter=0;" parent="1" source="y5E1LS35C2M6shkiyCh6-8" target="y5E1LS35C2M6shkiyCh6-13" edge="1">
          <mxGeometry relative="1" as="geometry">
            <mxPoint x="1168" y="-426" as="targetPoint" />
            <mxPoint x="1226.1999999999998" y="-740.0999999999999" as="sourcePoint" />
            <Array as="points">
              <mxPoint x="1230" y="-710" />
              <mxPoint x="1230" y="-676" />
            </Array>
          </mxGeometry>
        </mxCell>
        <UserObject label="Awesome Lists" link="https://www.google.com/search?q=postgresql+awesome" id="y5E1LS35C2M6shkiyCh6-16">
          <mxCell style="whiteSpace=wrap;html=1;shape=partialRectangle;top=0;left=0;bottom=1;right=0;points=[[0,1],[1,1]];strokeColor=#666666;fillColor=#f5f5f5;align=left;verticalAlign=middle;routingCenterY=0.5;snapToPoint=1;container=1;recursiveResize=0;autosize=1;treeFolding=1;treeMoving=1;fontColor=#333333;fontSize=10;spacingLeft=14;flipV=1;" parent="1" vertex="1">
            <mxGeometry x="1119" y="-661.5" width="110" height="20" as="geometry" />
          </mxCell>
        </UserObject>
        <mxCell id="y5E1LS35C2M6shkiyCh6-17" value="" style="edgeStyle=orthogonalEdgeStyle;startArrow=none;endArrow=none;segment=10;curved=1;entryX=1.004;entryY=0.507;entryDx=0;entryDy=0;entryPerimeter=0;exitX=0;exitY=0.5;exitDx=0;exitDy=0;" parent="1" source="y5E1LS35C2M6shkiyCh6-8" target="y5E1LS35C2M6shkiyCh6-16" edge="1">
          <mxGeometry relative="1" as="geometry">
            <mxPoint x="1209" y="-665.7142857142857" as="targetPoint" />
            <mxPoint x="1250" y="-709" as="sourcePoint" />
          </mxGeometry>
        </mxCell>
        <UserObject label="Monitoring" id="y5E1LS35C2M6shkiyCh6-18">
          <mxCell style="whiteSpace=wrap;html=1;rounded=1;arcSize=50;align=center;verticalAlign=middle;container=1;recursiveResize=0;strokeWidth=1;autosize=1;spacing=4;treeFolding=1;treeMoving=1;fillColor=#ffe6cc;strokeColor=#d79b00;" parent="1" vertex="1">
            <mxGeometry x="1879.5" y="-701.5" width="100" height="30" as="geometry" />
          </mxCell>
        </UserObject>
        <mxCell id="y5E1LS35C2M6shkiyCh6-19" value="" style="edgeStyle=entityRelationEdgeStyle;startArrow=none;endArrow=none;segment=10;curved=1;entryX=-0.003;entryY=0.379;entryDx=0;entryDy=0;entryPerimeter=0;" parent="1" source="y5E1LS35C2M6shkiyCh6-18" target="y5E1LS35C2M6shkiyCh6-20" edge="1">
          <mxGeometry relative="1" as="geometry">
            <mxPoint x="1879.5" y="-734.5" as="sourcePoint" />
          </mxGeometry>
        </mxCell>
        <UserObject label="pgwatch2" link="https://github.com/cybertec-postgresql/pgwatch2" id="y5E1LS35C2M6shkiyCh6-20">
          <mxCell style="whiteSpace=wrap;html=1;shape=partialRectangle;top=0;left=0;bottom=1;right=0;points=[[0,1],[1,1]];strokeColor=#666666;fillColor=#f5f5f5;align=left;verticalAlign=middle;routingCenterY=0.5;snapToPoint=1;container=1;recursiveResize=0;autosize=1;treeFolding=1;treeMoving=1;fontColor=#333333;fontSize=10;spacingLeft=14;" parent="1" vertex="1">
            <mxGeometry x="2049.5" y="-724.5" width="90" height="20" as="geometry" />
          </mxCell>
        </UserObject>
        <UserObject label="check_pgactivity" link="https://github.com/OPMDG/check_pgactivity" id="y5E1LS35C2M6shkiyCh6-21">
          <mxCell style="whiteSpace=wrap;html=1;shape=partialRectangle;top=0;left=0;bottom=1;right=0;points=[[0,1],[1,1]];strokeColor=#666666;fillColor=#f5f5f5;align=left;verticalAlign=middle;routingCenterY=0.5;snapToPoint=1;container=1;recursiveResize=0;autosize=1;treeFolding=1;treeMoving=1;fontColor=#333333;fontSize=10;spacingLeft=14;" parent="1" vertex="1">
            <mxGeometry x="2049.5" y="-703" width="120" height="20" as="geometry" />
          </mxCell>
        </UserObject>
        <UserObject label="check_postgres" link="https://github.com/bucardo/check_postgres" id="y5E1LS35C2M6shkiyCh6-22">
          <mxCell style="whiteSpace=wrap;html=1;shape=partialRectangle;top=0;left=0;bottom=1;right=0;points=[[0,1],[1,1]];strokeColor=#666666;fillColor=#f5f5f5;align=left;verticalAlign=middle;routingCenterY=0.5;snapToPoint=1;container=1;recursiveResize=0;autosize=1;treeFolding=1;treeMoving=1;fontColor=#333333;fontSize=10;spacingLeft=14;" parent="1" vertex="1">
            <mxGeometry x="2049.5" y="-681" width="120" height="20" as="geometry" />
          </mxCell>
        </UserObject>
        <mxCell id="y5E1LS35C2M6shkiyCh6-23" value="" style="edgeStyle=entityRelationEdgeStyle;startArrow=none;endArrow=none;segment=10;curved=1;exitX=1;exitY=0.5;exitDx=0;exitDy=0;" parent="1" source="y5E1LS35C2M6shkiyCh6-18" target="y5E1LS35C2M6shkiyCh6-21" edge="1">
          <mxGeometry relative="1" as="geometry">
            <mxPoint x="2014.5" y="-671" as="sourcePoint" />
            <mxPoint x="2049.5" y="-698" as="targetPoint" />
          </mxGeometry>
        </mxCell>
        <mxCell id="y5E1LS35C2M6shkiyCh6-24" value="" style="edgeStyle=entityRelationEdgeStyle;startArrow=none;endArrow=none;segment=10;curved=1;exitX=1;exitY=0.5;exitDx=0;exitDy=0;" parent="1" source="y5E1LS35C2M6shkiyCh6-18" target="y5E1LS35C2M6shkiyCh6-22" edge="1">
          <mxGeometry relative="1" as="geometry">
            <mxPoint x="2004.5" y="-634" as="sourcePoint" />
            <mxPoint x="2039.5" y="-661" as="targetPoint" />
          </mxGeometry>
        </mxCell>
        <UserObject label="Schema Model" link="https://www.citusdata.com/blog/2018/11/27/postgres-more-than-a-relational-database/" id="T47zWwT-9xR79p9-MtNg-20">
          <mxCell style="whiteSpace=wrap;html=1;rounded=1;arcSize=50;align=center;verticalAlign=middle;container=1;recursiveResize=0;strokeWidth=1;autosize=1;spacing=4;treeFolding=1;treeMoving=1;fillColor=#ffe6cc;strokeColor=#d79b00;" parent="1" vertex="1">
            <mxGeometry x="1307.5" y="-422" width="120" height="30" as="geometry" />
          </mxCell>
        </UserObject>
        <mxCell id="T47zWwT-9xR79p9-MtNg-37" style="edgeStyle=orthogonalEdgeStyle;curved=1;rounded=0;orthogonalLoop=1;jettySize=auto;html=1;exitX=0;exitY=0.5;exitDx=0;exitDy=0;endArrow=none;endFill=0;entryX=1;entryY=0.25;entryDx=0;entryDy=0;" parent="1" source="T47zWwT-9xR79p9-MtNg-1" target="T47zWwT-9xR79p9-MtNg-20" edge="1">
          <mxGeometry relative="1" as="geometry">
            <mxPoint x="1716" y="-430" as="sourcePoint" />
            <mxPoint x="1791" y="-377" as="targetPoint" />
          </mxGeometry>
        </mxCell>
        <mxCell id="y5E1LS35C2M6shkiyCh6-34" value="" style="edgeStyle=orthogonalEdgeStyle;startArrow=none;endArrow=none;segment=10;curved=1;fontSize=10;fontColor=#333333;align=left;strokeColor=#666666;fillColor=#f5f5f5;spacingLeft=14;exitX=0;exitY=0.5;exitDx=0;exitDy=0;entryX=0.973;entryY=0.519;entryDx=0;entryDy=0;entryPerimeter=0;" parent="1" source="k2vKGYnpJEisK7GG5qBS-24" target="k2vKGYnpJEisK7GG5qBS-28" edge="1">
          <mxGeometry relative="1" as="geometry">
            <mxPoint x="1323.5" y="-580.8333333333333" as="sourcePoint" />
            <mxPoint x="1230" y="-560" as="targetPoint" />
            <Array as="points">
              <mxPoint x="1309" y="-600" />
              <mxPoint x="1230" y="-600" />
              <mxPoint x="1230" y="-562" />
            </Array>
          </mxGeometry>
        </mxCell>
        <mxCell id="y5E1LS35C2M6shkiyCh6-35" value="" style="startArrow=none;endArrow=none;segment=10;exitX=0.5;exitY=0;exitDx=0;exitDy=0;entryX=0.5;entryY=1;entryDx=0;entryDy=0;edgeStyle=orthogonalEdgeStyle;curved=1;" parent="1" source="T47zWwT-9xR79p9-MtNg-1" target="y5E1LS35C2M6shkiyCh6-2" edge="1">
          <mxGeometry relative="1" as="geometry">
            <mxPoint x="1700.166666666667" y="-629" as="targetPoint" />
            <mxPoint x="1662.666666666667" y="-489.83333333333326" as="sourcePoint" />
          </mxGeometry>
        </mxCell>
        <UserObject label="pg listen, notify" link="https://www.postgresql.org/docs/current/sql-listen.html" id="y5E1LS35C2M6shkiyCh6-36">
          <mxCell style="whiteSpace=wrap;html=1;shape=partialRectangle;top=0;left=0;bottom=1;right=0;points=[[0,1],[1,1]];strokeColor=#666666;fillColor=#f5f5f5;align=left;verticalAlign=middle;routingCenterY=0.5;snapToPoint=1;container=1;recursiveResize=0;autosize=1;treeFolding=1;treeMoving=1;fontColor=#333333;flipV=0;fontSize=10;spacingLeft=14;flipH=0;" parent="1" vertex="1">
            <mxGeometry x="1730" y="-544" width="100" height="20" as="geometry" />
          </mxCell>
        </UserObject>
        <mxCell id="y5E1LS35C2M6shkiyCh6-40" value="" style="edgeStyle=orthogonalEdgeStyle;startArrow=none;endArrow=none;segment=10;curved=1;entryX=0;entryY=0.5;entryDx=0;entryDy=0;exitX=1;exitY=0.5;exitDx=0;exitDy=0;" parent="1" source="T47zWwT-9xR79p9-MtNg-1" target="QQFrIH2gePDctSpPwOKv-9" edge="1">
          <mxGeometry relative="1" as="geometry">
            <mxPoint x="1957" y="-218" as="targetPoint" />
            <mxPoint x="1663" y="-420" as="sourcePoint" />
          </mxGeometry>
        </mxCell>
        <mxCell id="y5E1LS35C2M6shkiyCh6-41" value="" style="edgeStyle=orthogonalEdgeStyle;startArrow=none;endArrow=none;segment=10;curved=1;entryX=0;entryY=0.5;entryDx=0;entryDy=0;exitX=1;exitY=0.5;exitDx=0;exitDy=0;" parent="1" source="T47zWwT-9xR79p9-MtNg-1" target="2LREq_vUWXgBy6xoVpGK-14" edge="1">
          <mxGeometry relative="1" as="geometry">
            <mxPoint x="1967" y="-208" as="targetPoint" />
            <mxPoint x="1673" y="-410" as="sourcePoint" />
          </mxGeometry>
        </mxCell>
        <mxCell id="y5E1LS35C2M6shkiyCh6-44" value="" style="startArrow=none;endArrow=none;segment=10;entryX=0.75;entryY=1;entryDx=0;entryDy=0;exitX=-0.01;exitY=0.426;exitDx=0;exitDy=0;edgeStyle=orthogonalEdgeStyle;curved=1;exitPerimeter=0;" parent="1" source="T47zWwT-9xR79p9-MtNg-1" target="2LREq_vUWXgBy6xoVpGK-28" edge="1">
          <mxGeometry relative="1" as="geometry">
            <mxPoint x="1487" y="-713" as="targetPoint" />
            <mxPoint x="1663" y="-490" as="sourcePoint" />
          </mxGeometry>
        </mxCell>
        <mxCell id="y5E1LS35C2M6shkiyCh6-45" value="" style="startArrow=none;endArrow=none;segment=10;entryX=1;entryY=0.5;entryDx=0;entryDy=0;edgeStyle=orthogonalEdgeStyle;curved=1;exitX=0.5;exitY=0;exitDx=0;exitDy=0;" parent="1" source="T47zWwT-9xR79p9-MtNg-1" target="k2vKGYnpJEisK7GG5qBS-24" edge="1">
          <mxGeometry relative="1" as="geometry">
            <mxPoint x="1544" y="-527" as="targetPoint" />
            <mxPoint x="1590" y="-490" as="sourcePoint" />
            <Array as="points">
              <mxPoint x="1590" y="-501" />
              <mxPoint x="1590" y="-630" />
            </Array>
          </mxGeometry>
        </mxCell>
        <mxCell id="y5E1LS35C2M6shkiyCh6-46" value="" style="startArrow=none;endArrow=none;segment=10;entryX=1;entryY=0.75;entryDx=0;entryDy=0;exitX=0.5;exitY=0;exitDx=0;exitDy=0;edgeStyle=orthogonalEdgeStyle;curved=1;" parent="1" source="T47zWwT-9xR79p9-MtNg-1" target="y5E1LS35C2M6shkiyCh6-8" edge="1">
          <mxGeometry relative="1" as="geometry">
            <mxPoint x="1544.1379310344828" y="-527.1034482758621" as="targetPoint" />
            <mxPoint x="1608.9655172413795" y="-480.2068965517242" as="sourcePoint" />
            <Array as="points">
              <mxPoint x="1600" y="-501" />
              <mxPoint x="1600" y="-702" />
            </Array>
          </mxGeometry>
        </mxCell>
        <mxCell id="y5E1LS35C2M6shkiyCh6-47" value="" style="edgeStyle=entityRelationEdgeStyle;startArrow=none;endArrow=none;segment=10;curved=1;entryX=0;entryY=0.75;entryDx=0;entryDy=0;exitX=0.5;exitY=0;exitDx=0;exitDy=0;" parent="1" source="T47zWwT-9xR79p9-MtNg-1" target="2LREq_vUWXgBy6xoVpGK-26" edge="1">
          <mxGeometry relative="1" as="geometry">
            <mxPoint x="1845" y="-566.5" as="sourcePoint" />
            <mxPoint x="1757.9310344827586" y="-622.2758620689655" as="targetPoint" />
          </mxGeometry>
        </mxCell>
        <mxCell id="y5E1LS35C2M6shkiyCh6-48" value="" style="edgeStyle=orthogonalEdgeStyle;startArrow=none;endArrow=none;segment=10;curved=1;entryX=0;entryY=0.25;entryDx=0;entryDy=0;exitX=0.5;exitY=0;exitDx=0;exitDy=0;" parent="1" source="T47zWwT-9xR79p9-MtNg-1" target="y5E1LS35C2M6shkiyCh6-18" edge="1">
          <mxGeometry relative="1" as="geometry">
            <mxPoint x="1662.7586206896553" y="-490.55172413793105" as="sourcePoint" />
            <mxPoint x="1744.8275862068967" y="-566.4137931034483" as="targetPoint" />
          </mxGeometry>
        </mxCell>
        <mxCell id="y5E1LS35C2M6shkiyCh6-49" value="" style="edgeStyle=orthogonalEdgeStyle;startArrow=none;endArrow=none;segment=10;curved=1;entryX=0.352;entryY=-0.02;entryDx=0;entryDy=0;exitX=0.664;exitY=1.005;exitDx=0;exitDy=0;exitPerimeter=0;entryPerimeter=0;" parent="1" source="2LREq_vUWXgBy6xoVpGK-26" target="y5E1LS35C2M6shkiyCh6-36" edge="1">
          <mxGeometry relative="1" as="geometry">
            <mxPoint x="1744.8275862068967" y="-558.8275862068965" as="sourcePoint" />
            <mxPoint x="1662.7586206896553" y="-490.55172413793105" as="targetPoint" />
          </mxGeometry>
        </mxCell>
        <mxCell id="y5E1LS35C2M6shkiyCh6-51" value="" style="startArrow=none;endArrow=none;segment=10;entryX=1;entryY=0.5;entryDx=0;entryDy=0;edgeStyle=orthogonalEdgeStyle;curved=1;exitX=0.5;exitY=0;exitDx=0;exitDy=0;" parent="1" source="T47zWwT-9xR79p9-MtNg-1" target="k2vKGYnpJEisK7GG5qBS-13" edge="1">
          <mxGeometry relative="1" as="geometry">
            <mxPoint x="1364.1379310344828" y="-691.9310344827586" as="targetPoint" />
            <mxPoint x="1650" y="-500" as="sourcePoint" />
          </mxGeometry>
        </mxCell>
        <UserObject label="AWS Aurora Serverless" link="https://aws.amazon.com/rds/aurora/serverless/" id="HHV1oedFI-QJn18pL6A6-1">
          <mxCell style="whiteSpace=wrap;html=1;shape=partialRectangle;top=0;left=0;bottom=1;right=0;points=[[0,1],[1,1]];strokeColor=#666666;fillColor=#f5f5f5;align=left;verticalAlign=middle;routingCenterY=0.5;snapToPoint=1;container=1;recursiveResize=0;autosize=1;treeFolding=1;treeMoving=1;fontColor=#333333;fontSize=10;spacingLeft=14;" parent="1" vertex="1">
            <mxGeometry x="1989.5" y="-447" width="130" height="20" as="geometry" />
          </mxCell>
        </UserObject>
        <mxCell id="HHV1oedFI-QJn18pL6A6-2" value="" style="edgeStyle=entityRelationEdgeStyle;startArrow=none;endArrow=none;segment=10;curved=1;entryX=0.015;entryY=0.402;entryDx=0;entryDy=0;entryPerimeter=0;exitX=1;exitY=0.5;exitDx=0;exitDy=0;" parent="1" source="2LREq_vUWXgBy6xoVpGK-14" target="HHV1oedFI-QJn18pL6A6-1" edge="1">
          <mxGeometry relative="1" as="geometry">
            <mxPoint x="1903" y="-420" as="sourcePoint" />
            <mxPoint x="2008.5" y="-402.33333333333326" as="targetPoint" />
          </mxGeometry>
        </mxCell>
        <UserObject label="&lt;font style=&quot;font-size: 10px&quot;&gt;Babelfish SQL Server Adapter&lt;/font&gt;" link="https://babelfishpg.org/blog/releases/2021/10/babelfish-launch/" linkTarget="_blank" id="un3_q_s0PpBnJtd6iBvX-1">
          <mxCell style="whiteSpace=wrap;html=1;shape=partialRectangle;top=0;left=0;bottom=1;right=0;points=[[0,1],[1,1]];strokeColor=#666666;fillColor=#f5f5f5;align=left;verticalAlign=middle;routingCenterY=0.5;snapToPoint=1;container=1;recursiveResize=0;autosize=1;treeFolding=1;treeMoving=1;fontColor=#333333;flipV=0;fontSize=10;spacingLeft=14;" parent="1" vertex="1">
            <mxGeometry x="2025.75" y="-199" width="157.5" height="20" as="geometry" />
          </mxCell>
        </UserObject>
        <mxCell id="un3_q_s0PpBnJtd6iBvX-2" value="" style="edgeStyle=entityRelationEdgeStyle;startArrow=none;endArrow=none;segment=10;curved=1;entryX=0.014;entryY=0.653;entryDx=0;entryDy=0;entryPerimeter=0;exitX=0.75;exitY=1;exitDx=0;exitDy=0;" parent="1" source="T47zWwT-9xR79p9-MtNg-2" target="un3_q_s0PpBnJtd6iBvX-1" edge="1">
          <mxGeometry relative="1" as="geometry">
            <mxPoint x="1960.75" y="-185.5" as="sourcePoint" />
            <mxPoint x="2031.1780000000003" y="-155.13999999999987" as="targetPoint" />
          </mxGeometry>
        </mxCell>
        <UserObject label="Supabase" link="https://supabase.com/database" id="SfU9j5zdmmiXh7cA-4Wi-1">
          <mxCell style="whiteSpace=wrap;html=1;shape=partialRectangle;top=0;left=0;bottom=1;right=0;points=[[0,1],[1,1]];strokeColor=#666666;fillColor=#f5f5f5;align=left;verticalAlign=middle;routingCenterY=0.5;snapToPoint=1;container=1;recursiveResize=0;autosize=1;treeFolding=1;treeMoving=1;fontColor=#333333;fontSize=10;spacingLeft=14;" parent="1" vertex="1">
            <mxGeometry x="1910.5" y="-279.5" width="70" height="19.5" as="geometry" />
          </mxCell>
        </UserObject>
        <mxCell id="SfU9j5zdmmiXh7cA-4Wi-2" value="" style="edgeStyle=entityRelationEdgeStyle;startArrow=none;endArrow=none;segment=10;curved=1;entryX=0.012;entryY=0.471;entryDx=0;entryDy=0;entryPerimeter=0;exitX=1;exitY=0.5;exitDx=0;exitDy=0;" parent="1" source="QQFrIH2gePDctSpPwOKv-9" target="SfU9j5zdmmiXh7cA-4Wi-1" edge="1">
          <mxGeometry relative="1" as="geometry">
            <mxPoint x="1880.5" y="-303" as="sourcePoint" />
            <mxPoint x="1928.48" y="-258.26" as="targetPoint" />
          </mxGeometry>
        </mxCell>
        <UserObject label="Neon Serverless" link="https://neon.tech/" id="dOTeLAMfdHEFkXMFswTM-1">
          <mxCell style="whiteSpace=wrap;html=1;shape=partialRectangle;top=0;left=0;bottom=1;right=0;points=[[0,1],[1,1]];strokeColor=#666666;fillColor=#f5f5f5;align=left;verticalAlign=middle;routingCenterY=0.5;snapToPoint=1;container=1;recursiveResize=0;autosize=1;treeFolding=1;treeMoving=1;fontColor=#333333;fontSize=10;spacingLeft=14;" parent="1" vertex="1">
            <mxGeometry x="1989.5" y="-365" width="108" height="20" as="geometry" />
          </mxCell>
        </UserObject>
        <mxCell id="dOTeLAMfdHEFkXMFswTM-2" value="" style="edgeStyle=entityRelationEdgeStyle;startArrow=none;endArrow=none;segment=10;curved=1;entryX=0.012;entryY=0.38;entryDx=0;entryDy=0;entryPerimeter=0;exitX=1;exitY=0.5;exitDx=0;exitDy=0;" parent="1" source="2LREq_vUWXgBy6xoVpGK-14" target="dOTeLAMfdHEFkXMFswTM-1" edge="1">
          <mxGeometry relative="1" as="geometry">
            <mxPoint x="1887.5" y="-296" as="sourcePoint" />
            <mxPoint x="1921.3400000000001" y="-283.31549999999993" as="targetPoint" />
          </mxGeometry>
        </mxCell>
        <UserObject label="Google AlloyDB for PostgreSQL" link="https://cloud.google.com/alloydb" id="dOTeLAMfdHEFkXMFswTM-5">
          <mxCell style="whiteSpace=wrap;html=1;shape=partialRectangle;top=0;left=0;bottom=1;right=0;points=[[0,1],[1,1]];strokeColor=#666666;fillColor=#f5f5f5;align=left;verticalAlign=middle;routingCenterY=0.5;snapToPoint=1;container=1;recursiveResize=0;autosize=1;treeFolding=1;treeMoving=1;fontColor=#333333;fontSize=10;spacingLeft=14;" parent="1" vertex="1">
            <mxGeometry x="1989.5" y="-406.5" width="175" height="20" as="geometry" />
          </mxCell>
        </UserObject>
        <mxCell id="dOTeLAMfdHEFkXMFswTM-6" value="" style="edgeStyle=entityRelationEdgeStyle;startArrow=none;endArrow=none;segment=10;curved=1;entryX=0.022;entryY=0.313;entryDx=0;entryDy=0;entryPerimeter=0;" parent="1" source="2LREq_vUWXgBy6xoVpGK-14" target="dOTeLAMfdHEFkXMFswTM-5" edge="1">
          <mxGeometry relative="1" as="geometry">
            <mxPoint x="1902.5" y="-406" as="sourcePoint" />
            <mxPoint x="2012.8000000000002" y="-398" as="targetPoint" />
          </mxGeometry>
        </mxCell>
      </root>
    </mxGraphModel>
  </diagram>
</mxfile>
